<svg xmlns="http://www.w3.org/2000/svg" viewBox="0 0 273.84 926.64"><defs><radialGradient id="a" cx="-1441.32" cy="-18230.25" r="166.96" gradientTransform="matrix(-.88 0 0 -.15 -1099.32 -2065.52)" gradientUnits="userSpaceOnUse"><stop offset="0" stop-color="#e3e3e3"/><stop offset="0" stop-color="#e1e1e1"/><stop offset="0" stop-color="#dadada"/><stop offset="0" stop-color="#cfcfcf"/><stop offset="0" stop-color="#bebebe"/><stop offset="0" stop-color="#a8a9a9"/><stop offset="0" stop-color="#979898"/><stop offset=".36" stop-color="#646464"/><stop offset="1"/></radialGradient><radialGradient id="e" cx="-1427.84" cy="-18359.32" r="166.95" gradientTransform="matrix(-.88 0 0 -.15 -1117.42 -1896.43)" href="#a"/><radialGradient id="f" cx="-1394.08" cy="-4880.19" r="166.95" gradientTransform="matrix(0 1.2 -.49 0 -2428.25 2338.45)" href="#a"/><radialGradient id="g" cx="-2752.12" cy="-10108.97" r="167.04" gradientTransform="matrix(-.88 0 0 -.26 -2451.74 -2404.95)" href="#a"/><radialGradient id="h" cx="-1836.01" cy="-24428.4" r="166.92" gradientTransform="matrix(0 .88 -.11 0 -2535.54 1739.75)" href="#a"/><radialGradient id="i" cx="-1988.84" cy="-30634.23" r="166.84" gradientTransform="matrix(-.94 0 0 -.09 -1731.09 -2338.74)" href="#a"/><radialGradient id="j" cx="-1554.5" cy="-17447.23" r="167.06" gradientTransform="matrix(0 .88 -.14 0 -2292.51 1562.04)" href="#a"/><radialGradient id="k" cx="-1791.73" cy="-25128.94" r="166.87" gradientTransform="matrix(0 .88 -.1 0 -2368.01 1561.81)" href="#a"/><radialGradient id="l" cx="-1855.8" cy="-17543.45" r="166.96" gradientTransform="matrix(0 .88 -.14 0 -2316.02 1561.85)" href="#a"/><radialGradient id="m" cx="2668.46" cy="29414.64" r="167" gradientTransform="matrix(.47 0 0 .08 -1147.67 -1992.93)" href="#a"/><radialGradient id="n" cx="-5272.99" cy="21360.04" r="166.95" gradientTransform="matrix(0 -.47 .08 0 -1487.68 -2514.42)" href="#a"/><radialGradient id="o" cx="4591.59" cy="8686.05" r="166.91" gradientTransform="matrix(.47 0 0 .08 -2059.88 -579.88)" href="#a"/><radialGradient id="p" cx="-3127.09" cy="-12545.27" r="166.94" gradientTransform="matrix(-.88 0 0 -.21 -2756.18 -2758.45)" href="#a"/><radialGradient id="q" cx="-2326.1" cy="-12440.04" r="166.97" gradientTransform="matrix(-.88 0 0 -.21 -2056.96 -2672.63)" href="#a"/><radialGradient id="r" cx="-1571.34" cy="-14812.36" r="166.93" gradientTransform="matrix(0 .88 -.17 0 -2530.9 1420)" href="#a"/><radialGradient id="s" cx="-2555.93" cy="-17509.96" r="167.04" gradientTransform="matrix(-.88 0 0 -.17 -2026.94 -2801.02)" href="#a"/><radialGradient id="t" cx="465.24" cy="-16705.13" r="166.93" gradientTransform="matrix(0 .38 -.16 0 -2420.8 -146.71)" href="#a"/><radialGradient id="u" cx="-1959.56" cy="-32016.9" r="166.97" gradientTransform="matrix(-.88 0 0 -.09 -1539.18 -2444.21)" href="#a"/><radialGradient id="b" cx="-3048.25" cy="-8525.33" r="130.05" gradientTransform="matrix(-1.5 0 0 -.27 -4589.2 -2144.58)" gradientUnits="userSpaceOnUse"><stop offset="0" stop-color="#e3e3e3"/><stop offset="0" stop-color="#e3e3e1"/><stop offset="0" stop-color="#e4e2da"/><stop offset="0" stop-color="#e6e0cf"/><stop offset="0" stop-color="#e9debe"/><stop offset="0" stop-color="#ecdba8"/><stop offset="0" stop-color="#f0d78c"/><stop offset="0" stop-color="#f5d36c"/><stop offset="0" stop-color="#face48"/><stop offset="0" stop-color="#ffc925"/><stop offset=".04" stop-color="#e6b521"/><stop offset=".17" stop-color="#9f7d17"/><stop offset=".27" stop-color="#725a10"/><stop offset=".32" stop-color="#614c0e"/><stop offset=".43" stop-color="#46370a"/><stop offset=".58" stop-color="#281f06"/><stop offset=".73" stop-color="#120e03"/><stop offset=".87" stop-color="#050401"/><stop offset="1"/></radialGradient><radialGradient id="v" cx="-3394.43" cy="-7234.34" r="130.02" gradientTransform="matrix(-1.29 0 0 -.3 -4447.87 -1868.45)" href="#b"/><radialGradient id="w" cx="-2225.04" cy="-7675.62" r="129.94" gradientTransform="matrix(0 .85 -.27 0 -2087.09 1882.94)" href="#b"/><radialGradient id="c" cx="-1499.11" cy="3089.63" r="39.66" gradientTransform="matrix(.72 -6.29 1.49 .17 -3529.15 -9868.96)" gradientUnits="userSpaceOnUse"><stop offset="0" stop-color="#268413"/><stop offset=".07" stop-color="#1e680f"/><stop offset=".18" stop-color="#15480a"/><stop offset=".29" stop-color="#0d2e07"/><stop offset=".41" stop-color="#071904"/><stop offset=".55" stop-color="#030b02"/><stop offset=".72" stop-color="#010300"/><stop offset="1"/></radialGradient><radialGradient id="x" cx="-1454.04" cy="2277.75" r="39.66" gradientTransform="matrix(1.81 -6.07 2.51 .75 -3144.8 -10247.98)" href="#c"/><clipPath id="d"><path fill="none" d="M273.85.5v927.13H0V.5"/></clipPath></defs><g clip-path="url(#d)" style="isolation:isolate"><path fill="#153966" d="M273.85.5v927.13H0V.5"/><g fill="#66def2"><path d="m8 445-26.9 46.68a.5.5 0 0 1-.32.24.52.52 0 0 1-.4-.08L-79.26 451a.49.49 0 0 1-.2-.55.48.48 0 0 1 .45-.36l86.52-5.8a.53.53 0 0 1 .46.23.6.6 0 0 1 .07.22.46.46 0 0 1-.04.26m-27.48 45.7 26.12-45.38-84.15 5.68Z"/><path d="M8 444.92a.52.52 0 0 1-.44.34L-79 451.05a.47.47 0 0 1-.41-.18.47.47 0 0 1-.1-.44l17-66.58a.52.52 0 0 1 .33-.36.5.5 0 0 1 .48.11l69.57 60.78a.53.53 0 0 1 .15.54ZM-78.32 450l84.62-5.66-68-59.46Z"/><path d="M27.59 391.36 8 444.93a.48.48 0 0 1-.34.31.52.52 0 0 1-.46-.11l-69.52-60.78a.51.51 0 0 1-.13-.57.52.52 0 0 1 .5-.31l89.1 7.22a.48.48 0 0 1 .38.23.6.6 0 0 1 .08.22.4.4 0 0 1-.02.22M7.32 443.9l19.11-52.27-86.94-7Z"/><path d="M27.58 391.39a.53.53 0 0 1-.5.3L-62 384.47a.53.53 0 0 1-.36-.2.5.5 0 0 1-.09-.41l14.21-62.69a.53.53 0 0 1 .34-.37.51.51 0 0 1 .49.11l74.89 69.91a.5.5 0 0 1 .16.32.37.37 0 0 1-.06.25m-88.94-7.87 87.09 7.05-73.21-68.33Z"/><path d="m45.46 320.22-17.85 71.09a.5.5 0 0 1-.61.36.5.5 0 0 1-.22-.12l-74.9-69.9a.53.53 0 0 1-.12-.55.49.49 0 0 1 .46-.32L45 319.6a.51.51 0 0 1 .4.19.54.54 0 0 1 .11.27 1 1 0 0 1-.05.16m-18.61 70 17.48-69.63-90.85 1.15Z"/><path d="M45.45 320.23a.48.48 0 0 1-.47.37l-92.75 1.18a.51.51 0 0 1-.41-.2.52.52 0 0 1-.07-.45l15.47-48.27a.5.5 0 0 1 .3-.32.54.54 0 0 1 .43 0l77.28 47.09a.56.56 0 0 1 .24.39.5.5 0 0 1-.02.21m-92.54.54 90.32-1.15L-32 273.77Z"/><path d="m64.7 231.57-19.24 88.64a.47.47 0 0 1-.29.35.53.53 0 0 1-.46 0l-77.28-47.09a.48.48 0 0 1-.23-.46.5.5 0 0 1 .3-.43L64 231a.5.5 0 0 1 .51.08.46.46 0 0 1 .18.34.4.4 0 0 1 .01.15m-20.07 87.74 18.89-87-94.74 40.78Z"/><path d="m64.41 231.92-96.52 41.55a.49.49 0 0 1-.56-.12.48.48 0 0 1-.08-.57L-2.92 216a.5.5 0 0 1 .55-.26L64.33 231a.5.5 0 0 1 .38.45.49.49 0 0 1-.3.47M-31.21 272l93.82-40.38-64.82-14.86Z"/><path d="m76.47 162-11.76 69.55a.45.45 0 0 1-.22.33.54.54 0 0 1-.39.07l-66.69-15.28a.51.51 0 0 1-.38-.39.5.5 0 0 1 .21-.5l78.45-54.27a.52.52 0 0 1 .56 0 .55.55 0 0 1 .23.38.4.4 0 0 1-.01.11m-12.66 68.86L75.29 163l-76.55 53Z"/><path d="M125 259.44 45.27 320.5a.47.47 0 0 1-.57 0 .48.48 0 0 1-.22-.53l19.25-88.63a.5.5 0 0 1 .7-.34l60.46 27.58a.49.49 0 0 1 .29.4.49.49 0 0 1-.18.46m-79.25 59.44 78-59.73-59.14-27Z"/><path d="m129.23 181.92-4.06 77.15a.45.45 0 0 1-.24.4.47.47 0 0 1-.46 0L64 231.92a.52.52 0 0 1-.29-.4.45.45 0 0 1 .19-.45l64.52-49.58a.54.54 0 0 1 .8.39Zm-5 76.36 4-75.33-63 48.4Z"/><path d="m123.77 104.43 5.46 77.42a.5.5 0 0 1-.2.44.52.52 0 0 1-.48.07l-52.75-20a.49.49 0 0 1-.3-.63.6.6 0 0 1 .09-.15l47.29-57.45a.5.5 0 0 1 .54-.16.51.51 0 0 1 .35.43Zm4.41 76.71-5.32-75.39-46 55.95Z"/><path d="M76.26 162.33-2.19 216.6a.51.51 0 0 1-.58 0 .49.49 0 0 1-.19-.54l16.11-58.21a.51.51 0 0 1 .51-.37L76 161.42a.5.5 0 0 1 .45.36v.09a.51.51 0 0 1-.19.46M-1.63 215l76.14-52.67L14 158.49ZM91 382a.5.5 0 0 1-.39.3l-63.41 9.38a.51.51 0 0 1-.57-.42.6.6 0 0 1 0-.19L44.48 320a.5.5 0 0 1 .89-.18l45.55 61.72a.8.8 0 0 1 .1.25.8.8 0 0 1-.02.21m-63.19 8.57 61.83-9.13-44.44-60.19Z"/><path d="m125.17 259.07-3.46 65.56a.53.53 0 0 1-.17.35.5.5 0 0 1-.36.13l-76.24-4.51a.49.49 0 0 1-.45-.35.51.51 0 0 1 .18-.55l79.7-61.05a.52.52 0 0 1 .54 0 .49.49 0 0 1 .26.4Zm-4.44 65 3.39-64-77.78 59.61Z"/><path d="M121.65 324.84 91 382.06a.5.5 0 0 1-.41.26.51.51 0 0 1-.43-.2L44.57 320.4a.5.5 0 0 1 .1-.7.48.48 0 0 1 .33-.1l76.24 4.51a.5.5 0 0 1 .4.25.5.5 0 0 1 .07.2.7.7 0 0 1-.06.28m-31.2 56.05 30-55.83-74.45-4.4Zm-12.1 32.46a.51.51 0 0 1-.3.46l-70.3 31.4a.49.49 0 0 1-.55-.09.52.52 0 0 1-.13-.53L26.65 391a.5.5 0 0 1 .28-.29.45.45 0 0 1 .39 0l50.73 22.16a.53.53 0 0 1 .3.42ZM8.42 443.82l68.19-30.46-49.2-21.5Z"/><path d="m91 382-12.69 31.54a.5.5 0 0 1-.27.27.45.45 0 0 1-.39 0l-50.73-22.16a.51.51 0 0 1-.35-.63.5.5 0 0 1 .48-.37l63.39-9.37a.52.52 0 0 1 .47.19.54.54 0 0 1 .11.26.8.8 0 0 1-.02.27m-13.4 30.68 12.15-30.25-60.81 9Z"/><path d="m78.34 413.44-7.73 43a.49.49 0 0 1-.57.41l-62.59-11.6a.51.51 0 0 1-.4-.43.52.52 0 0 1 .29-.52l70.3-31.4a.49.49 0 0 1 .52.06.53.53 0 0 1 .19.35.6.6 0 0 1-.01.13m-8.63 42.34 7.48-41.59-68 30.37Z"/><path d="m70.45 456.74-35.22 31.58a.54.54 0 0 1-.41.12.52.52 0 0 1-.35-.23L7.12 445a.5.5 0 0 1 0-.55.48.48 0 0 1 .5-.21l62.57 11.6a.51.51 0 0 1 .39.36v.09a.53.53 0 0 1-.13.45M35 487.18l34-30.51-60.42-11.21Z"/><path d="M35.34 488.17a.49.49 0 0 1-.42.27l-54.22 3.49a.5.5 0 0 1-.46-.24.47.47 0 0 1 0-.51l26.87-46.67a.5.5 0 0 1 .42-.25.48.48 0 0 1 .44.23l27.35 43.18a.6.6 0 0 1 .07.23.5.5 0 0 1-.05.27m-53.78 2.7L34 487.5 7.56 445.72ZM122.36 417l-51.94 39.76a.5.5 0 0 1-.57 0 .52.52 0 0 1-.23-.51l7.74-43a.5.5 0 0 1 .53-.41l44.2 3.26a.49.49 0 0 1 .45.35v.1a.51.51 0 0 1-.18.45m-51.53 38.18L120.71 417l-42.45-3.13Z"/><path d="m122.56 416.59 1.65 55.07a.48.48 0 0 1-.19.41.46.46 0 0 1-.44.08L70 456.85a.53.53 0 0 1-.36-.39.51.51 0 0 1 .19-.49l51.94-39.76a.49.49 0 0 1 .52-.06.52.52 0 0 1 .29.41Zm.63 54.42-1.6-53.42-50.38 38.57Z"/><path d="m149.07 369.44.49 72.37a.47.47 0 0 1-.3.46.51.51 0 0 1-.54-.09l-27-25.21a.5.5 0 0 1-.1-.61l26.51-47.17a.52.52 0 0 1 .7-.17.52.52 0 0 1 .24.37Zm-.51 71.21-.48-69.32-25.39 45.18Z"/><path d="M149.45 442.13 124.09 472a.5.5 0 0 1-.88-.31l-1.65-55.07a.49.49 0 0 1 .29-.47.51.51 0 0 1 .55.09l27 25.2a.53.53 0 0 1 .15.33.47.47 0 0 1-.1.36m-25.28 28.23 24.2-28.51-25.78-24.06Z"/><path d="M160.74 503.89a.48.48 0 0 1-.57-.06l-36.78-31.78a.5.5 0 0 1-.06-.7l25.35-29.86a.49.49 0 0 1 .51-.16.51.51 0 0 1 .37.39L161 503.37a.5.5 0 0 1-.26.52m-36.32-32.27 35.32 30.53-11-59.21Zm33.04-143.36-8.4 41.28a.49.49 0 0 1-.39.39l-58 12.38a.5.5 0 0 1-.42-.88l66.46-53.66a.5.5 0 0 1 .57 0 .49.49 0 0 1 .24.39ZM148.14 369l8.07-39.6-63.75 51.49Z"/><path d="m157.29 328.55-66.46 53.66a.5.5 0 0 1-.63 0 .5.5 0 0 1-.12-.62l30.69-57.21a.49.49 0 0 1 .49-.26l35.74 3.54a.5.5 0 0 1 .43.36.17.17 0 0 1 0 .1.49.49 0 0 1-.14.43m-65.16 51.33 63.58-51.34-34.22-3.4Z"/><path d="M157.34 328.5a.51.51 0 0 1-.42.16l-35.76-3.55a.52.52 0 0 1-.38-.24.6.6 0 0 1 0-.45l24-59.32a.51.51 0 0 1 .52-.31.49.49 0 0 1 .44.4l11.72 62.88v.05a.47.47 0 0 1-.12.38m-35.42-4.32 34.44 3.42-11.29-60.54Z"/><path d="m145.71 265.47-24 59.33a.51.51 0 0 1-.57.3.51.51 0 0 1-.39-.52l3.43-65.58a.47.47 0 0 1 .21-.39.54.54 0 0 1 .43-.07l20.57 6.25a.48.48 0 0 1 .31.26 1 1 0 0 1 .05.17.7.7 0 0 1-.04.25m-23.85 56.19 22.72-56.05-19.44-5.9Z"/><path d="m144.49 198.62 1.26 66.66a.51.51 0 0 1-.2.41.55.55 0 0 1-.45.08l-20.57-6.25a.5.5 0 0 1-.3-.24.53.53 0 0 1 0-.39l19.32-60.42a.5.5 0 0 1 1 .11Zm.24 66-1.18-63-18.24 57.06Z"/><path d="m144.47 198.78-19.32 60.42a.49.49 0 0 1-.56.33.5.5 0 0 1-.41-.51l4-77.16a.49.49 0 0 1 .52-.47.46.46 0 0 1 .35.16l15.26 16.74a.51.51 0 0 1 .11.49Zm-19.09 56.42 18.05-56.45-14.26-15.64Z"/><path d="m146.54 105.94-2 92.7a.48.48 0 0 1-.32.45.51.51 0 0 1-.55-.13l-15.26-16.73a.52.52 0 0 1-.12-.45l17.31-76a.5.5 0 0 1 1 .07.4.4 0 0 0-.06.09m-3 91.43 1.91-86.52-16.15 70.9Z"/><path d="m146.52 106-17.3 76a.5.5 0 0 1-1-.08l-5.46-77.42a.5.5 0 0 1 .47-.53h.06l22.77 1.45a.55.55 0 0 1 .37.2.6.6 0 0 1 .09.26.24.24 0 0 1 0 .12M129 178.49l16.43-72.1-21.62-1.39Z"/><path d="m123.65 104.79-47.29 57.44a.48.48 0 0 1-.55.16.5.5 0 0 1-.33-.47l-1.06-70.27a.45.45 0 0 1 .19-.4.5.5 0 0 1 .44-.09L123.4 104a.49.49 0 0 1 .34.33v.1a.5.5 0 0 1-.09.36m-47.19 55.76 45.93-55.8-47-12.46Z"/><path d="m75.42 91.63 1.06 70.28a.52.52 0 0 1-.16.37.55.55 0 0 1-.37.14l-62.35-3.95a.5.5 0 0 1-.43-.32.46.46 0 0 1 .1-.52L74.55 91.3a.5.5 0 0 1 .87.3Zm0 69.75-1-68.48-59.71 64.64Z"/><path d="M14.11 158.1-2 216.32a.48.48 0 0 1-.32.34.5.5 0 0 1-.46-.08l-23.88-18.29a.47.47 0 0 1-.2-.36.5.5 0 0 1 .15-.39l40-39.92a.51.51 0 0 1 .71 0 .5.5 0 0 1 .14.3.4.4 0 0 1-.03.18m-16.87 57.24 15.41-55.68-38.25 38.19Z"/><path d="m14 158.32-40 39.93a.5.5 0 0 1-.6.08.5.5 0 0 1-.23-.56l8.74-34.53a.52.52 0 0 1 .4-.37l31.25-5.39a.5.5 0 0 1 .53.26.6.6 0 0 1 .05.18.53.53 0 0 1-.14.4m-39.42 37.94 37.59-37.53-29.37 5.07Z"/><path d="M24.48 84.28 14.13 158a.51.51 0 0 1-.41.42l-31.25 5.4a.52.52 0 0 1-.49-.2.51.51 0 0 1 0-.53L23.54 84a.48.48 0 0 1 .59-.24.51.51 0 0 1 .35.43Zm-11.29 73.26L23.09 87l-39.79 75.7Zm.44.44"/><path d="M75.28 92 14 158.31a.5.5 0 0 1-.58.11.49.49 0 0 1-.28-.52l10.35-73.76a.48.48 0 0 1 .53-.42l51 7.43a.49.49 0 0 1 .4.32v.13a.49.49 0 0 1-.14.4m-60.93 64.46L73.91 92l-49.5-7.22Zm134.03-85.57L146.53 106a.48.48 0 0 1-.16.35.5.5 0 0 1-.37.12L123.24 105a.48.48 0 0 1-.42-.29.52.52 0 0 1 0-.51l24.62-33.6a.5.5 0 0 1 .57-.18.53.53 0 0 1 .33.43Zm-2.82 34.5 1.73-32.88L124.21 104Z"/><path d="m81.27 38-5.86 53.69a.48.48 0 0 1-.19.35.5.5 0 0 1-.38.1l-50.93-7.43a.49.49 0 0 1-.41-.36.51.51 0 0 1 .17-.53l56.79-46.26a.49.49 0 0 1 .7.08.47.47 0 0 1 .11.26.17.17 0 0 1 0 .1m-6.79 53.07 5.67-52-55 44.77Z"/><path d="M81.09 38.34 24.3 84.6a.51.51 0 0 1-.49.08.5.5 0 0 1-.32-.38L14.22 31a.51.51 0 0 1 .41-.58h.13l66.07 7a.48.48 0 0 1 .42.36v.09a.52.52 0 0 1-.16.47m-56.76 45 55.2-45-64.21-6.84Z"/><path d="m24.42 84.44-41.59 79.16a.5.5 0 0 1-.62.23.5.5 0 0 1-.31-.58L.07 86.18a.5.5 0 0 1 .44-.38l23.43-2.09a.52.52 0 0 1 .46.22.7.7 0 0 1 .08.24.43.43 0 0 1-.06.27m-40.64 75.2 39.33-74.85L1 86.76Z"/><path d="M24.38 84.52a.5.5 0 0 1-.35.19L.6 86.79a.48.48 0 0 1-.42-.17.49.49 0 0 1-.11-.45l14.16-55.36a.49.49 0 0 1 .5-.38.5.5 0 0 1 .47.42l9.27 53.28a.53.53 0 0 1-.09.39M1.22 85.74l22.18-2-8.78-50.42Z"/><path d="M81.19 38.23a.52.52 0 0 1-.47.22l-66.06-7a.5.5 0 0 1-.41-.3.52.52 0 0 1 .07-.51l38.14-48.43a.51.51 0 0 1 .44-.21.51.51 0 0 1 .4.28l27.92 55.44a.5.5 0 0 1 0 .18.47.47 0 0 1-.03.33m-65.53-7.7 64.26 6.82-27.16-53.9Z"/><path d="M53.24-17.17 15.1 31.24a.5.5 0 0 1-.59.15.48.48 0 0 1-.29-.53l10.34-72.47a.52.52 0 0 1 .32-.4.52.52 0 0 1 .51.09l27.79 24.06a.5.5 0 0 1 .17.34.5.5 0 0 1-.11.35M15.47 29.16l36.69-46.57-26.74-23.15Z"/><path d="M15.2 31.06 1 86.42a.5.5 0 0 1-.52.37.48.48 0 0 1-.48-.44L-8.65.72a.47.47 0 0 1 .32-.51.5.5 0 0 1 .58.16l22.86 30.26a.5.5 0 0 1 .1.26 1 1 0 0 1-.01.17M.77 83.45 14.17 31-7.47 2.4Z"/><path d="M25.55-41.47 15.21 31a.53.53 0 0 1-.37.42.5.5 0 0 1-.53-.19L-8.55 1a.47.47 0 0 1 0-.61l33.22-42.24a.48.48 0 0 1 .58-.15.51.51 0 0 1 .31.41.5.5 0 0 1-.01.12M14.39 29.67l9.91-69.44L-7.52.68Zm116.02 12.94L75.25 92a.5.5 0 0 1-.56.08.48.48 0 0 1-.27-.5l5.86-53.7a.5.5 0 0 1 .54-.44l49.3 4.29a.48.48 0 0 1 .43.34v.11a.52.52 0 0 1-.14.43M75.56 90.4l53.32-47.77-47.66-4.14Z"/><path d="m130.57 42.29-6.81 62.23a.47.47 0 0 1-.21.36.5.5 0 0 1-.41.07L74.79 92.12a.47.47 0 0 1-.36-.36.53.53 0 0 1 .15-.49l55.16-49.41a.54.54 0 0 1 .57-.07.52.52 0 0 1 .27.4.3.3 0 0 1-.01.1m-7.74 61.55 6.61-60.36-53.5 47.92Z"/><path d="m139.64 58-15.9 46.66a.51.51 0 0 1-1-.22l6.81-62.23a.5.5 0 0 1 .93-.2l9.09 15.57a.8.8 0 0 1 .06.21.5.5 0 0 1 .01.21m-15.38 42 14.36-42.15-8.21-14.05Z"/><path d="m153.44 43-5.07 28a.5.5 0 0 1-.39.4.51.51 0 0 1-.52-.21l-8.71-13.06a.48.48 0 0 1 .05-.61l13.78-14.86a.52.52 0 0 1 .59-.11.53.53 0 0 1 .28.41Zm-5.83 26.52 4.54-25-12.35 13.34Zm-17.08-27.07a.5.5 0 0 1-.5.28l-49.3-4.28a.51.51 0 0 1-.4-.28.46.46 0 0 1 0-.48L98 9a.51.51 0 0 1 .37-.23.48.48 0 0 1 .41.15l31.71 33a.5.5 0 0 1 .14.3.7.7 0 0 1-.1.23m-48.91-4.93 47.17 4.1L98.46 10.1Z"/><path d="M130.28 42.69a.47.47 0 0 1-.56-.11L98 9.63a.51.51 0 0 1-.13-.41.49.49 0 0 1 .25-.37l27.4-15.54a.49.49 0 0 1 .47 0 .52.52 0 0 1 .27.4l4.32 48.49a.52.52 0 0 1-.3.49M99.18 9.4l30.27 31.47-4.12-46.31Z"/><path d="M98.8 9.55 81.2 38.21a.49.49 0 0 1-.45.24.5.5 0 0 1-.42-.28L52.4-17.25a.52.52 0 0 1 .11-.59.47.47 0 0 1 .59-.07L98.63 8.86a.48.48 0 0 1 .23.31v.07a.47.47 0 0 1-.06.31m-18 27.37L97.68 9.46 54.06-16.19ZM.9 86.66-13 99.86a.51.51 0 0 1-.53.1.5.5 0 0 1-.31-.45l-1.51-41.61a.5.5 0 0 1 .37-.5.5.5 0 0 1 .57.24L1 86.06a.6.6 0 0 1 .06.19.52.52 0 0 1-.16.41m-13.78 11.71L-.06 86.2-14.27 60Z"/><path d="m1 86.41-18.17 77.07a.49.49 0 0 1-.56.38.49.49 0 0 1-.42-.53l4.27-63.87a.53.53 0 0 1 .15-.33L.21 85.93a.51.51 0 0 1 .6-.07.54.54 0 0 1 .25.39.4.4 0 0 1-.06.16m-17.75 71 16.44-69.6-12.55 11.91Z"/><path d="M.71 86.77a.5.5 0 0 1-.59-.24l-15.41-28.41a.45.45 0 0 1-.05-.3L-8.65.62a.51.51 0 0 1 .5-.45.52.52 0 0 1 .5.45l8.71 85.63a.51.51 0 0 1-.35.52m-15-29 14.1 26.09-8-78.59Z"/><path d="M25.45-41.23-7.76 1a.5.5 0 0 1-.58.16.49.49 0 0 1-.31-.54l11.16-101.3a.5.5 0 0 1 .43-.45.53.53 0 0 1 .53.32l22.06 59.09v.13a.5.5 0 0 1-.08.36M-7.46-1l32-40.62L3.27-98.49Z"/><path d="M3.5-100.58-7.65.73a.52.52 0 0 1-.42.44.53.53 0 0 1-.54-.29l-15.54-34.26a.44.44 0 0 1 0-.39l26.7-67a.51.51 0 0 1 .59-.3.51.51 0 0 1 .37.45.06.06 0 0 1-.01.04M-8.45-1.19 2.1-97l-25.25 63.4ZM97.53-78.71l1.34 88a.48.48 0 0 1-.25.44.5.5 0 0 1-.5 0L52.6-17a.5.5 0 0 1-.24-.33.45.45 0 0 1 .09-.39L96.62-79a.51.51 0 0 1 .56-.19.51.51 0 0 1 .35.43Zm.33 87.12-1.31-85.6-43 59.56ZM150 5l-19.48 37.47a.51.51 0 0 1-.68.21.49.49 0 0 1-.26-.4l-4.32-48.49a.53.53 0 0 1 .22-.46.48.48 0 0 1 .49 0l23.79 11a.5.5 0 0 1 .26.29v.12A.46.46 0 0 1 150 5m-19.58 35.48L148.86 5 126.34-5.44Z"/><path d="M153.31 43.29a.46.46 0 0 1-.38.16l-22.87-.71a.49.49 0 0 1-.41-.25.46.46 0 0 1 0-.48L149.1 4.5a.53.53 0 0 1 .55-.26.51.51 0 0 1 .4.45l3.4 38.22a.5.5 0 0 1-.14.38m-22.42-1.53 21.51.67-3.2-35.94ZM126-5.82 98.62 9.72a.49.49 0 0 1-.68-.18.45.45 0 0 1-.07-.25l-1.34-88a.51.51 0 0 1 .4-.5.49.49 0 0 1 .56.3l28.74 72.47a.3.3 0 0 1 0 .14.51.51 0 0 1-.23.48M98.86 8.44l26.28-14.92L97.57-76Z"/><path d="M149.89 5.1a.51.51 0 0 1-.55.09l-23.79-11a.5.5 0 0 1-.28-.55l7.1-35.9a.5.5 0 0 1 .45-.41.51.51 0 0 1 .51.33L150 4.57v.12a.54.54 0 0 1-.11.41M126.33-6.54l22.35 10.32L133-40.28Z"/><path d="m146.38-107.51 3.67 112.23a.52.52 0 0 1-.41.51.51.51 0 0 1-.56-.33L132.39-42a.6.6 0 0 1 0-.27l13-65.33a.5.5 0 0 1 .54-.4.49.49 0 0 1 .45.46Zm2.56 109.05-3.41-104.68-12.15 60.94Zm13.82 286.85-5.29 39.84a.49.49 0 0 1-.48.43.52.52 0 0 1-.51-.41l-11.72-62.87a.5.5 0 0 1 .89-.39l17 23a.54.54 0 0 1 .09.25.2.2 0 0 1 .02.15M156.89 325l4.85-36.53-15.6-21.13Zm-7.14-153.68-5.27 27.4a.49.49 0 0 1-.54.4.48.48 0 0 1-.45-.51l1.1-49.73a.49.49 0 0 1 .46-.49.52.52 0 0 1 .53.41l4.17 22.33v.05a.3.3 0 0 1 0 .14m-5.13 21.37 4.13-21.47-3.27-17.5Z"/><path d="M158 217.14a.51.51 0 0 1-.6-.15l-13.8-18.06a.52.52 0 0 1-.1-.4l5.27-27.4a.5.5 0 0 1 1 0l8.57 45.46a.49.49 0 0 1-.34.55m-13.48-18.64L157 214.71l-7.7-40.81Z"/><path d="m158.31 216.81-12.58 48.6a.49.49 0 0 1-.54.37.49.49 0 0 1-.44-.48l-1.26-66.67a.5.5 0 0 1 .9-.31l13.83 18.06a.4.4 0 0 1 .1.26.5.5 0 0 1-.01.17m-12.63 44.81 11.6-44.83-12.76-16.65Z"/><path d="m158.32 216.65 4.44 71.65a.5.5 0 0 1-.9.32l-17-23a.52.52 0 0 1-.09-.42l12.58-48.6a.5.5 0 1 1 1 .08Zm3.34 70-4.14-66.82-11.73 45.33ZM34.14 554.3a.49.49 0 0 1-.35.33l-44.47 11.65a.47.47 0 0 1-.4-.07.5.5 0 0 1-.22-.35l-8.53-74.37a.52.52 0 0 1 .3-.52.49.49 0 0 1 .58.14l53 62.71a.5.5 0 0 1 .12.28.6.6 0 0 1-.03.2m-44.51 10.87 43.14-11.31L-18.65 493Z"/><path d="m35.39 488-1.23 66.21a.51.51 0 0 1-.33.46.5.5 0 0 1-.55-.15l-53-62.72a.49.49 0 0 1-.07-.52.48.48 0 0 1 .42-.3l54.23-3.49a.5.5 0 0 1 .38.14.48.48 0 0 1 .15.32Zm-2.2 64.86 1.19-64.33-52.69 3.39Z"/><path d="M90.16 509.43a.5.5 0 0 1-.53.11l-54.92-21.13a.5.5 0 0 1-.28-.65.4.4 0 0 1 .13-.19L69.78 456a.49.49 0 0 1 .45-.11.52.52 0 0 1 .35.31l19.7 52.71v.09a.51.51 0 0 1-.12.43m-54.32-21.66L89 508.21l-19-51Z"/><path d="M90.12 509.47 34 554.54a.51.51 0 0 1-.53.06.53.53 0 0 1-.28-.46l1.23-66.21a.45.45 0 0 1 .68-.4L90 508.61a.47.47 0 0 1 .31.39.52.52 0 0 1-.19.47m-55.94 43.62 54.64-43.86-53.44-20.56Z"/><path d="m124.08 472-33.9 37.4a.5.5 0 0 1-.84-.16l-19.7-52.71a.5.5 0 0 1 .11-.51.49.49 0 0 1 .5-.15l53.6 15.31a.48.48 0 0 1 .34.35v.09a.47.47 0 0 1-.11.38M90 508.13l32.81-36.2-51.88-14.81Z"/><path d="M105 564a.47.47 0 0 1-.44.16l-71-9.5a.49.49 0 0 1-.41-.36.48.48 0 0 1 .17-.52l56.18-45.09a.48.48 0 0 1 .46-.09.49.49 0 0 1 .33.34l14.83 54.58v.09a.5.5 0 0 1-.12.39m-70.12-10.19 69.12 9.24-14.47-53.11Z"/><path d="m105 564-41.36 32.75a.5.5 0 0 1-.7-.09l-29.69-42.23a.48.48 0 0 1 0-.54.5.5 0 0 1 .5-.24l71 9.5a.53.53 0 0 1 .42.37v.09a.49.49 0 0 1-.17.39m-41.56 31.63 40-31.64-68.67-9.2Zm-51.73 26.98a.5.5 0 0 1-.59 0l-45.71-29.79a.5.5 0 0 1-.22-.35.46.46 0 0 1 .12-.4l23.51-26.63a.5.5 0 0 1 .46-.16.47.47 0 0 1 .38.31L11.86 622a.3.3 0 0 1 0 .14.49.49 0 0 1-.15.47m-45.27-30.28L10.36 621-11 566.74Z"/><path d="m11.8 622.52-28.95 38.72a.51.51 0 0 1-.5.19.51.51 0 0 1-.39-.37l-16.76-68.51a.46.46 0 0 1 .19-.52.52.52 0 0 1 .56 0l45.72 29.77a.57.57 0 0 1 .22.33.45.45 0 0 1-.09.39m-29.12 37.27 28-37.44-44.21-28.81Z"/><path d="m34.14 554.3-22.27 68.08a.5.5 0 0 1-.64.3.5.5 0 0 1-.3-.3L-11.27 566a.58.58 0 0 1 0-.41.5.5 0 0 1 .32-.25l44.46-11.66a.52.52 0 0 1 .49.14.5.5 0 0 1 .14.3.5.5 0 0 1 0 .18m-22.79 66.45 21.55-65.89-43 11.28Z"/><path d="m63.83 596.39-4.66 61.9a.48.48 0 0 1-.29.42.5.5 0 0 1-.51-.06l-47.28-36a.5.5 0 0 1-.19-.45.52.52 0 0 1 .27-.4l51.94-25.86a.5.5 0 0 1 .5 0 .47.47 0 0 1 .22.37Zm-5.58 60.91 4.52-60.1-50.43 25.11Zm75.91-120.1a.48.48 0 0 1-.54 0l-44.08-27.7a.52.52 0 0 1-.23-.36.45.45 0 0 1 .13-.4l33.9-37.4a.5.5 0 0 1 .71 0 .52.52 0 0 1 .16.3l10.17 65.11a.51.51 0 0 1-.22.45M90.58 509l42.64 26.81-9.84-63Z"/><path d="M134.22 537.15 105 564a.48.48 0 0 1-.47.11.51.51 0 0 1-.35-.35l-14.85-54.55a.5.5 0 0 1 .34-.62.49.49 0 0 1 .41.06l44.07 27.71a.48.48 0 0 1 .23.38.46.46 0 0 1-.16.41m-29.32 25.58 28.16-25.87-42.43-26.68Z"/><path d="M140 604.2a.53.53 0 0 1-.58-.13L104.26 564a.5.5 0 0 1 0-.7l29.24-26.86a.5.5 0 0 1 .71 0 .54.54 0 0 1 .13.3l6 67a.49.49 0 0 1-.34.46m-34.71-40.51 33.88 38.57-5.74-64.42Z"/><path d="m161.84 578.07-21.62 26a.49.49 0 0 1-.7.06.48.48 0 0 1-.18-.34l-6-66.95a.5.5 0 0 1 .92-.32l27.57 41a.4.4 0 0 1 .08.23.52.52 0 0 1-.07.32m-21.61 24.42 20.6-24.77-26.28-39Z"/><path d="m160.88 503.77-26.61 33.33a.51.51 0 0 1-.52.17.49.49 0 0 1-.36-.41l-10.17-65.11a.47.47 0 0 1 .25-.51.5.5 0 0 1 .57.06l36.78 31.78a.47.47 0 0 1 .17.33.52.52 0 0 1-.11.36m-26.68 31.82 25.6-32.07-35.38-30.58Z"/><path d="m161 503.45 1 74.29a.54.54 0 0 1-1 .26l-27.57-41a.51.51 0 0 1 0-.6L160 503.07a.52.52 0 0 1 .56-.16.53.53 0 0 1 .33.43Zm-.06 72.63-.94-71.22-25.5 31.95Z"/><path d="m162 577.75.23 67.24a.49.49 0 0 1-.37.49.52.52 0 0 1-.57-.25L139.4 604a.48.48 0 0 1 .06-.55l21.61-26a.5.5 0 0 1 .55-.15.47.47 0 0 1 .33.42Zm-.82 65.25-.18-63.88-20.56 24.68Z"/><path d="M140.34 603.79a.5.5 0 0 1-.2.34l-35.46 27a.47.47 0 0 1-.52 0 .5.5 0 0 1-.28-.45l.25-67.11a.5.5 0 0 1 .88-.33l35.21 40.09a.5.5 0 0 1 .12.28Zm-35.45 26 34.22-26.09-34-38.69Z"/><path d="M104.88 630.8a.49.49 0 0 1-.24.39l-45.71 27.49a.5.5 0 0 1-.68-.15.55.55 0 0 1-.07-.31l4.65-61.9a.54.54 0 0 1 .31-.43.5.5 0 0 1 .51.08l41.05 34.41a.5.5 0 0 1 .18.34Zm-45.63 26.53 44.27-26.63-39.76-33.33Z"/><path d="M59.17 658.29a.48.48 0 0 1-.25.4L18.11 682a.49.49 0 0 1-.68-.18.5.5 0 0 1-.07-.2l-6.46-59.35a.46.46 0 0 1 .25-.48.5.5 0 0 1 .55 0l47.28 36a.48.48 0 0 1 .19.35.2.2 0 0 1 0 .15m-40.9 22.45 39.5-22.54L12 623.32Z"/><path d="m18.31 681.76-33.74 72.61a.5.5 0 0 1-.55.28.5.5 0 0 1-.4-.48L-18 661a.49.49 0 0 1 .24-.44.52.52 0 0 1 .51 0l35.41 20.61a.51.51 0 0 1 .25.38.5.5 0 0 1-.1.21M-15.42 752l32.63-70.23L-17 661.82Z"/><path d="m18.36 681.54 2.18 111.91a.52.52 0 0 1-.31.48.53.53 0 0 1-.56-.13l-35.92-39.3a.49.49 0 0 1-.08-.55l33.74-72.61a.49.49 0 0 1 .66-.24.51.51 0 0 1 .29.4Zm1.15 110.61L17.4 683.72l-32.69 70.35Z"/><path d="M68.37 723.69a.5.5 0 0 1-.56-.05l-50.27-41.71a.5.5 0 0 1 .07-.82l40.82-23.29a.47.47 0 0 1 .46 0 .48.48 0 0 1 .28.37l9.45 65a.49.49 0 0 1-.25.5m-49.63-42.07L67.45 722l-9.16-63Z"/><path d="m68.54 723.54-48.09 70.2a.5.5 0 0 1-.91-.27l-2.18-111.91a.5.5 0 0 1 .82-.4l50.27 41.71a.52.52 0 0 1 .18.34.5.5 0 0 1-.09.33m-48 68.35 46.95-68.54-49.11-40.72Z"/><path d="m68.63 723.29-7.82 109.13a.49.49 0 0 1-.53.46.52.52 0 0 1-.32-.14l-40.27-38.92a.5.5 0 0 1-.06-.64L67.72 723a.47.47 0 0 1 .57-.18.5.5 0 0 1 .34.42Zm-8.74 108 7.61-106.23-46.81 68.34Zm52.99-154.02a.49.49 0 0 1-.48.09l-53.89-18.63a.51.51 0 0 1-.33-.42.55.55 0 0 1 .24-.48l45.7-27.49a.49.49 0 0 1 .68.15.6.6 0 0 1 .07.19l8.18 46.12a.52.52 0 0 1-.17.47m-53-19.14 52.07 18-8-44.56Z"/><path d="m140.34 603.73.68 56.82a.51.51 0 0 1-.49.51.5.5 0 0 1-.33-.12l-36.14-29.79a.55.55 0 0 1-.18-.4.48.48 0 0 1 .2-.38l35.46-27a.5.5 0 0 1 .7.1.46.46 0 0 1 .1.25Zm-.34 55.75-.66-54.74-34.16 26Z"/><path d="M162 645.39 140.82 661a.54.54 0 0 1-.8-.44l-.68-56.82a.5.5 0 0 1 .94-.24l21.85 41.26a.4.4 0 0 1 .05.19.44.44 0 0 1-.18.44m-21 14.18 20-14.73-20.68-39Z"/><path d="m175.56 600.75-13.4 44.39a.5.5 0 0 1-1-.15l-.16-67.24a.5.5 0 0 1 .37-.49.5.5 0 0 1 .56.23l13.63 22.86a.5.5 0 0 1 .07.21.44.44 0 0 1-.07.19m-13.39 40.89 12.37-41L162 579.57Z"/><path d="m162.18 645.06-8.46 62a.5.5 0 0 1-1 .07L140 660.69a.53.53 0 0 1 .18-.54l21.17-15.56a.5.5 0 0 1 .55 0 .49.49 0 0 1 .24.39.2.2 0 0 1 .04.08m-9.12 59.43 8-58.4-19.94 14.66Z"/><path d="M175.58 600.58s1.23 30.16 1.28 31.43-8.05 8-14.87 13.37a.49.49 0 0 1-.69-.06.5.5 0 0 1-.09-.47l13.39-44.39a.49.49 0 0 1 .55-.35.47.47 0 0 1 .43.45Zm.28 31.47c0-1-.84-20.83-1.16-28.46l-12.07 40c6.37-5.11 12.91-10.67 13.23-11.54"/><path d="m176.84 632.18-23.14 75a.5.5 0 0 1-.59.34.48.48 0 0 1-.38-.55l8.46-62a.5.5 0 0 1 .16-.3l14.68-13a.53.53 0 0 1 .61 0 .5.5 0 0 1 .22.38.6.6 0 0 1-.02.13M154.54 701l20.82-67.44-13.21 11.66ZM141 660.57l-3 73.94a.51.51 0 0 1-1 .18l-24.9-57.6a.5.5 0 0 1 .21-.63l28-16.34a.52.52 0 0 1 .69.2.7.7 0 0 1 .06.19Zm-4 71.71 3-70.83-26.81 15.65Z"/><path d="M113.06 676.92 107.47 766a.49.49 0 0 1-.34.44.48.48 0 0 1-.53-.13l-38.84-42.72a.5.5 0 0 1 0-.68l44.43-46.37a.51.51 0 0 1 .56-.11.5.5 0 0 1 .3.41Zm-6.52 87.85 5.46-86.55-43.16 45Z"/><path d="m138 734.52-5.33 82.8a.49.49 0 0 1-.4.46.52.52 0 0 1-.55-.27l-25.2-51.31a.49.49 0 0 1 .09-.56l30.49-31.5a.51.51 0 0 1 .56-.11.53.53 0 0 1 .3.42Zm-6.2 80.86 5.11-79.57-29.3 30.27Zm17.2-445.7-26.51 47.17a.51.51 0 0 1-.38.25.47.47 0 0 1-.42-.16l-31.54-34.78a.51.51 0 0 1-.11-.49.53.53 0 0 1 .37-.34L148.47 369a.48.48 0 0 1 .5.19.55.55 0 0 1 .1.25.4.4 0 0 1-.07.24m-27 46.07 25.63-45.59-56.12 12Z"/><path d="M107.47 766 98.2 873.94a.48.48 0 0 1-.34.43.5.5 0 0 1-.53-.14l-37.39-41.52a.48.48 0 0 1 0-.62l46.66-66.39a.5.5 0 0 1 .91.24ZM97.31 872.7l9-104.91-45.37 64.55Z"/><path d="M60.73 832.65 1.87 925.56a.51.51 0 0 1-.6.2.48.48 0 0 1-.32-.53l18.59-131.84a.51.51 0 0 1 .85-.29L60.65 832a.6.6 0 0 1 .16.32.54.54 0 0 1-.08.33M2.26 923.07l57.41-90.61-39.27-38Z"/><path d="M20.54 793.53 1.94 925.37a.5.5 0 0 1-.39.41.48.48 0 0 1-.53-.22l-35.29-55.76a.47.47 0 0 1 0-.55l53.88-76.08a.49.49 0 0 1 .59-.17.5.5 0 0 1 .32.42ZM1.14 923.88l18.12-128.45-52.5 74.12Z"/><path d="m1.93 925.41-22.44 95.36a.52.52 0 0 1-.39.38l-27.4 2.46a.5.5 0 0 1-.55-.29l-14.64-33.18a.49.49 0 0 1 .1-.56l64.48-64.64a.51.51 0 0 1 .71 0 .52.52 0 0 1 .14.31.4.4 0 0 1-.01.16m-50 97.14 26.69-2.32 22-93.33-63 63.14Z"/><path d="M60.8 832.46 35.15 987.34a.51.51 0 0 1-.41.42.5.5 0 0 1-.52-.26L1 925.53a.5.5 0 0 1 0-.5l58.86-92.92a.51.51 0 0 1 .71-.14.55.55 0 0 1 .22.37.5.5 0 0 1 .01.12M34.41 985.73l25-151L2 925.32Z"/><path d="m35 987.6-28.11 30.95a.5.5 0 0 1-.32.16l-27.52 2.45a.54.54 0 0 1-.43-.17.53.53 0 0 1-.11-.44L1 925.18a.48.48 0 0 1 .58-.38.47.47 0 0 1 .34.26L35.1 987a.6.6 0 0 1 .06.19.53.53 0 0 1-.16.41m-55.38 32.5 26.64-2.37L34 987.19 1.63 926.7Z"/><path d="m98.2 874-18.67 137.83a.5.5 0 0 1-.45.43l-25.4 2.26a.53.53 0 0 1-.45-.21l-19-26.76a.51.51 0 0 1 0-.53l63-113.37a.5.5 0 0 1 .93.2c.12 0 .21 0 .21.07s-.05.21-.17.08m-44.32 139.5 24.71-2.2 18.26-134.85-61.6 110.78Z"/><path d="m132.63 817.33-9.83 111.31a.5.5 0 0 1-.41.45.49.49 0 0 1-.54-.29l-24.6-54.7a.49.49 0 0 1 0-.47L131.71 817a.5.5 0 0 1 .58-.22.51.51 0 0 1 .34.43ZM122 926.64l9.47-107.26-33.2 54.55Z"/><path d="m122.78 928.76-29.24 81.92a.53.53 0 0 1-.43.33l-14 1.25a.53.53 0 0 1-.41-.16.44.44 0 0 1-.13-.41l18.64-137.86a.5.5 0 0 1 .42-.43.51.51 0 0 1 .53.29l24.6 54.7a.4.4 0 0 1 0 .16.5.5 0 0 1 .02.21m-43.17 82.45L92.7 1010l29.07-81.42L98 875.69Z"/><path d="m151.86 862.37-29.1 66.43a.52.52 0 0 1-1-.25l9.83-111.31a.52.52 0 0 1 .42-.58.51.51 0 0 1 .58.43L151.86 862v.15a.4.4 0 0 1 0 .22m-28.79 63.23 27.79-63.43-18.4-42.86Z"/><path d="M167.41 748.3 151.9 862.24a.5.5 0 0 1-.43.42.51.51 0 0 1-.53-.29l-19.27-44.89a.5.5 0 0 1 0-.42l34.78-69a.5.5 0 0 1 .6-.25.51.51 0 0 1 .35.43s.01.04.01.06m-16.26 112L166 751.13l-33.31 66.17Z"/><path d="m167.36 748.46-34.78 69a.51.51 0 0 1-.58.26.49.49 0 0 1-.36-.51l5.32-82.8a.49.49 0 0 1 .24-.4.55.55 0 0 1 .47 0l29.46 13.74a.5.5 0 0 1 .26.29v.12a.5.5 0 0 1-.03.3m-34.57 66.41 33.45-66.4-28.33-13.22Zm19.11 47.36L134 996.6a.5.5 0 0 1-1 0l-11.22-67.94a.45.45 0 0 1 0-.28L150.94 862a.5.5 0 0 1 .6-.28.49.49 0 0 1 .36.43Zm-18.43 130.92 17-127.54-27.62 63Z"/><path d="M167.25 748.61a.51.51 0 0 1-.54.08l-29.46-13.75a.5.5 0 0 1-.27-.3.55.55 0 0 1 0-.4l15.77-27.5a.5.5 0 0 1 .91.09l13.69 41.25a.2.2 0 0 1 0 .11.53.53 0 0 1-.1.42m-29.09-14.34 27.92 13-13-39.09Z"/><path d="m176.86 632 .68 38.75a.47.47 0 0 1-.09.28l-23.81 36.21a.5.5 0 0 1-.69.16.49.49 0 0 1-.21-.58l23.15-75a.49.49 0 0 1 .54-.34.5.5 0 0 1 .43.45Zm-.33 38.61-.61-35.46-21.18 68.6Z"/><path d="m177.53 670.84-10.12 77.46a.49.49 0 0 1-.44.43.52.52 0 0 1-.53-.34l-13.69-41.25a.5.5 0 0 1 .05-.43l23.82-36.21a.49.49 0 0 1 .69-.13.48.48 0 0 1 .22.36.2.2 0 0 1 0 .11M166.71 746l9.55-73.13-22.49 34.19ZM211 31.15a.5.5 0 0 1-.57-.09L175.12-3.22a.5.5 0 0 1-.15-.39.51.51 0 0 1 .21-.37L203.7-24.7a.48.48 0 0 1 .49-.06.48.48 0 0 1 .3.4l6.75 55a.48.48 0 0 1-.24.51M176.24-3.52l33.83 32.87-6.47-52.75Z"/><path d="M211.21 30.87a.5.5 0 0 1-.42.33l-36.31 3.23a.51.51 0 0 1-.55-.47l1-37.51a.52.52 0 0 1 .31-.45.51.51 0 0 1 .54.11l35.27 34.27a.48.48 0 0 1 .15.32.4.4 0 0 1 .01.17M175 33.38l34.66-3.08-33.72-32.72Z"/><path d="m176-3.56-1 37.5a.48.48 0 0 1-.35.47.51.51 0 0 1-.55-.18L152 4.78a.5.5 0 0 1 .1-.7l.13-.07 23.08-8a.5.5 0 0 1 .46.07.57.57 0 0 1 .2.36Zm-2 36 1-35.34-21.81 7.63Z"/><path d="M174.9 34.1a.54.54 0 0 1-.34.32l-21.8 5.48a.54.54 0 0 1-.41-.08.47.47 0 0 1-.21-.35l-2.68-22a.4.4 0 0 1 0-.15l2.42-12.92a.52.52 0 0 1 .38-.39.5.5 0 0 1 .52.18l22.05 29.45a.5.5 0 0 1 .1.26.34.34 0 0 1-.03.2m-24.44-16.68 2.6 21.37 20.52-5.16-20.92-27.94Z"/><path d="M176-3.45a.51.51 0 0 1-.32.35L152.54 5a.49.49 0 0 1-.44 0 .47.47 0 0 1-.22-.37l-2.93-33a.3.3 0 0 1 0-.13l.66-3.61a.48.48 0 0 1 .35-.39.5.5 0 0 1 .51.15l25.37 28.5a.46.46 0 0 1 .13.29Zm-26-25 2.82 32.25 21.78-7.6L150.41-31Zm76 26.63-14.8 32.73a.51.51 0 0 1-.63.35.52.52 0 0 1-.37-.5l-6.74-55a.52.52 0 0 1 .28-.51.5.5 0 0 1 .57.1l21.58 22.28a.5.5 0 0 1 .14.3.54.54 0 0 1-.03.25m-15 30.69 13.93-30.79-20.26-21Z"/><path d="M246.65 43.46a.5.5 0 0 1-.53.14l-35.54-12.43a.45.45 0 0 1-.3-.27.5.5 0 0 1 0-.41l14.79-32.72a.51.51 0 0 1 .46-.3.51.51 0 0 1 .45.29l20.76 45.16a.4.4 0 0 1 0 .16.48.48 0 0 1-.09.38m-35.23-13 33.92 11.86L225.53-.82Z"/><path d="M242.81 3.13a.49.49 0 0 1-.55.2l-16.87-4.88a.49.49 0 0 1-.34-.33l-8.38-27a.5.5 0 0 1 .24-.59.51.51 0 0 1 .63.13l25.25 31.88a.5.5 0 0 1 .1.27.5.5 0 0 1-.08.32m-16.88-5.56L241 1.94l-22.61-28.6ZM211.2 30.91l-22.54 49.72a.49.49 0 0 1-.48.29.52.52 0 0 1-.45-.36L174 34.07a.52.52 0 0 1 .07-.42.55.55 0 0 1 .37-.22l36.26-3.23a.53.53 0 0 1 .45.21.54.54 0 0 1 .09.25.5.5 0 0 1-.04.25M188.31 79l21.62-47.72-34.84 3.1Z"/><path d="M188.62 80.7a.55.55 0 0 1-.37.22l-25.4 2.26a.52.52 0 0 1-.42-.17.49.49 0 0 1-.11-.45L174 33.81a.5.5 0 0 1 1 0l13.78 46.49v.09a.5.5 0 0 1-.16.31m-25.17 1.42L187.56 80l-13.07-44.1Z"/><path d="m174.92 34.05-11.63 48.74a.48.48 0 0 1-.4.38.49.49 0 0 1-.51-.22l-13.33-20.56A.5.5 0 0 1 149 62l3.48-19.1-.31-3.48a.5.5 0 0 1 .37-.53l21.8-5.48a.53.53 0 0 1 .48.13.55.55 0 0 1 .14.32.4.4 0 0 1-.04.19m-21.47 8.86V43L150 62l12.59 19.42 11.17-46.81-20.59 5.17ZM219 93.05a.51.51 0 0 1-.49.07L188 80.88a.5.5 0 0 1-.27-.28.53.53 0 0 1 0-.39l22.54-49.72a.51.51 0 0 1 .53-.29.52.52 0 0 1 .42.44l7.92 62a.49.49 0 0 1-.14.41m-30.09-12.9 29.18 11.72-7.59-59.36Z"/><path d="M246.72 43.37 219.1 92.9a.48.48 0 0 1-.53.24.5.5 0 0 1-.4-.42l-7.93-62a.52.52 0 0 1 .19-.45.49.49 0 0 1 .48-.08l35.54 12.42a.5.5 0 0 1 .3.3.3.3 0 0 1 0 .13.47.47 0 0 1-.03.33M219 91.08l26.56-47.68-34.22-12Z"/><path d="M246.41 43.61a.49.49 0 0 1-.58-.28L225.08-1.82a.47.47 0 0 1 .07-.53.51.51 0 0 1 .52-.16l16.86 4.88a.5.5 0 0 1 .36.43l3.89 40.28a.52.52 0 0 1-.37.53m-20-44.85 19.09 41.47-3.57-37Z"/><path d="m254.42 72-35.5 21.11a.48.48 0 0 1-.6-.07.5.5 0 0 1-.09-.6l27.62-49.53a.47.47 0 0 1 .49-.25.53.53 0 0 1 .43.36l7.87 28.41v.09a.51.51 0 0 1-.22.48M220 91.27l33.57-20-7.45-26.87Z"/><path d="m257.49 34.06-10.88 9.44a.49.49 0 0 1-.69 0 .48.48 0 0 1-.13-.3L241.9 2.9a.49.49 0 0 1 .36-.52.51.51 0 0 1 .59.26l14.76 30.83a1 1 0 0 1 .05.18.54.54 0 0 1-.17.41m-10.8 8 9.85-8.56-13.38-27.89Z"/><path d="m257.66 33.72-3 37.86a.51.51 0 0 1-.45.46.5.5 0 0 1-.53-.37l-7.88-28.41a.49.49 0 0 1 .16-.51l10.87-9.45a.5.5 0 0 1 .55-.07.53.53 0 0 1 .28.41Zm-3.77 35 2.67-33.82-9.71 8.44Zm-90.62 14.14a.49.49 0 0 1-.34.3l-16.7 4.5a.5.5 0 0 1-.61-.35.6.6 0 0 1 0-.13v-6.11l1.77-10.3L149 62a.51.51 0 0 1 .61-.39.5.5 0 0 1 .31.21l13.33 20.56a.35.35 0 0 1 .08.22.4.4 0 0 1-.06.26M148.37 71l-1.76 10.2v5.38l15.39-4.2-12.27-18.93Z"/><path d="m188.69 80.57-15 48a.5.5 0 0 1-1 0l-10.37-45.78a.54.54 0 0 1 .08-.41.57.57 0 0 1 .36-.2l25.4-2.26a.52.52 0 0 1 .44.18.54.54 0 0 1 .11.27.7.7 0 0 1-.02.2m-15.39 45.94L187.51 81l-24.09 2.15Z"/><path d="M173.64 128.71a.45.45 0 0 1-.33.22l-26.58 4.36a.5.5 0 0 1-.46-.16.49.49 0 0 1-.09-.48l16.15-50.12a.5.5 0 0 1 1 0l10.42 45.75v.07a.44.44 0 0 1-.11.36m-26.26 3.46 25.24-4.17-9.9-43.46Zm107.26-60.49-14.35 50.24a.49.49 0 0 1-.62.34.52.52 0 0 1-.27-.19L218.26 93a.52.52 0 0 1 .15-.73l35.5-21.11a.52.52 0 0 1 .56 0 .5.5 0 0 1 .19.35.3.3 0 0 1-.02.17m-15 49 13.73-48-34 20.19Z"/><path d="M211.08 140.78a.5.5 0 0 1-.52.13l-37.49-12a.49.49 0 0 1-.32-.61l15-48a.53.53 0 0 1 .47-.35.5.5 0 0 1 .48.32l22.5 60a.3.3 0 0 1 0 .13.47.47 0 0 1-.12.38m-37.23-12.67 36 11.53L188.25 82Z"/><path d="m219.16 92.74-7.95 47.78a.5.5 0 0 1-1 .09l-22.51-60a.5.5 0 0 1 .12-.53.51.51 0 0 1 .54-.11l30.45 12.24a.48.48 0 0 1 .31.42.4.4 0 0 1 .04.11m-8.63 45.77L218.11 93l-29-11.66Z"/><path d="M231.3 156.13a.5.5 0 0 1-.57 0l-20.31-15.28a.5.5 0 0 1-.2-.48l7.95-47.78a.5.5 0 0 1 1 0l12.36 63a.49.49 0 0 1-.23.54m-20-15.91 19 14.3-11.59-59.06Z"/><path d="m240.29 121.91-8.78 33.92a.48.48 0 0 1-.49.38.51.51 0 0 1-.48-.41l-12.36-63.05a.48.48 0 0 1 .29-.55.49.49 0 0 1 .6.16l21.14 29.13a.46.46 0 0 1 .1.25.5.5 0 0 1-.02.17m-9.19 31.54 8.17-31.57-19.68-27.1Zm-19.92-12.82-23.34 55a.51.51 0 0 1-.51.31.49.49 0 0 1-.44-.4l-14.15-67a.5.5 0 0 1 .15-.48.49.49 0 0 1 .49-.1l37.49 12a.5.5 0 0 1 .3.27.4.4 0 0 1 0 .16.5.5 0 0 1 .01.24m-23.64 53.12 22.5-53-36.15-11.57Z"/><path d="m231.5 155.89-20 52.18a.49.49 0 0 1-.55.32.51.51 0 0 1-.41-.49l-.36-67.46a.54.54 0 0 1 .8-.45l20.31 15.28a.5.5 0 0 1 .17.58Zm-19.94 49.33 18.87-49.34-19.21-14.44Z"/><path d="m211.22 140.43.36 67.46a.49.49 0 0 1-.74.43l-23.7-12.49a.5.5 0 0 1-.22-.64l23.34-55a.5.5 0 0 1 .55-.3.51.51 0 0 1 .4.45.07.07 0 0 1 0 .08Zm-.65 66.63-.34-64.2L188 195.18Z"/><path d="M187.74 195.75a.47.47 0 0 1-.43.15l-34.71-4.57a.46.46 0 0 1-.35-.23.52.52 0 0 1-.06-.42l20.56-62.4a.48.48 0 0 1 .5-.34.5.5 0 0 1 .47.39l14.15 67a.5.5 0 0 1-.13.42m-34.41-5.33 33.41 4.4-13.62-64.47Z"/><path d="M173.7 128.59 153.14 191a.49.49 0 0 1-.51.34.47.47 0 0 1-.45-.41l-6.7-38.65v-.1l.68-19.39a.51.51 0 0 1 .42-.47l26.58-4.32a.51.51 0 0 1 .58.45.7.7 0 0 1-.04.14m-27.22 23.57 6.34 36.62 19.67-59.72-25.35 4.17Zm85.04 3.63L218.89 231a.51.51 0 0 1-.46.42.5.5 0 0 1-.51-.35l-7.32-23a.47.47 0 0 1 0-.33l20-52.18a.5.5 0 1 1 1 .13Zm-13.27 73 11.46-68.23-18.1 47.34Z"/><path d="m211.56 208-17.67 60.48a.5.5 0 1 1-1-.1l-6-73a.49.49 0 0 1 .43-.54.5.5 0 0 1 .3.06l23.7 12.48a.52.52 0 0 1 .27.4.6.6 0 0 1-.03.22m-17.88 57.61 16.8-57.49L188 196.28Z"/><path d="m187.85 195.56-20.3 64.59a.5.5 0 0 1-1 0l-9.87-41-4.55-28.21a.52.52 0 0 1 .14-.43.47.47 0 0 1 .42-.15l34.71 4.57a.52.52 0 0 1 .36.23.6.6 0 0 1 .08.22 1 1 0 0 1 .01.18m-30.15 23.37 9.44 39.2 19.58-62.3-33.45-4.41Z"/><path d="m193.9 268.43-8.29 65a.49.49 0 0 1-.47.43.48.48 0 0 1-.51-.38l-18-73.37a.52.52 0 0 1 .14-.49.54.54 0 0 1 .5-.11l26.33 8.37a.51.51 0 0 1 .35.43.6.6 0 0 1-.05.12m-8.9 62.22 7.9-61.94-25.09-8Z"/><path d="m211.58 207.92-3.33 76.38a.51.51 0 0 1-.33.45.5.5 0 0 1-.54-.14L193 268.7a.5.5 0 0 1-.11-.48l17.67-60.47a.5.5 0 0 1 1 .1ZM207.31 283l3.09-71-16.4 56.24Z"/><path d="m218.89 231-10.65 53.36a.5.5 0 1 1-1-.12l3.33-76.39a.5.5 0 1 1 1-.13l7.32 23a.2.2 0 0 1 0 .11.5.5 0 0 1 0 .17m-10.35 46.8 9.34-46.8-6.43-20.22Zm-14.63-9.47 5.14 76.6a.51.51 0 0 1-.49.53.48.48 0 0 1-.34-.11l-13.44-11.6a.52.52 0 0 1-.17-.44l8.3-65a.49.49 0 0 1 .51-.43.51.51 0 0 1 .49.45m4.09 75.48-4.72-70.28-7.61 59.64Z"/><path d="M208.25 284.35 199 345a.51.51 0 0 1-.51.43.54.54 0 0 1-.49-.43l-5.14-76.6a.53.53 0 0 1 .3-.5.51.51 0 0 1 .57.13l14.34 15.91a.48.48 0 0 1 .13.3Zm-9.51 56 8.48-55.92L194 269.77Zm-13.23-6.67a.51.51 0 0 1-.39.19l-27.64.46a.5.5 0 0 1-.5-.46l-.51-5.66a.2.2 0 0 1 0-.11l5.28-39.78-.66-7.47a.5.5 0 0 1 0-.17l5.47-20.68-8.86-36.77a.51.51 0 0 1 .37-.61h.08a.5.5 0 0 1 .53.38l8.88 36.9 18 73.37v.08a.54.54 0 0 1-.05.33m-23.41-52.83.66 7.43a.2.2 0 0 1 0 .11l-5.28 39.78.45 5.15 26.54-.44L167.06 262Z"/><path d="m185.6 333.5-15.23 60.58a.5.5 0 0 1-1 0l-14.87-52.27a.5.5 0 0 1 0-.29l2.5-7.85a.53.53 0 0 1 .47-.35l27.63-.45a.51.51 0 0 1 .4.19.54.54 0 0 1 .11.27 1 1 0 0 1-.01.17m-30.1 8.18L169.86 392l14.61-58.15-26.63.44Z"/><path d="m185.61 333.36 2.17 95.39a.52.52 0 0 1-.38.5.49.49 0 0 1-.57-.26l-17.39-34.81a.5.5 0 0 1 0-.34l15.23-60.59a.5.5 0 0 1 1 .08Zm1.12 93.18-2-89.46-14.31 56.82Z"/><path d="m199.05 345-11.28 83.8a.5.5 0 0 1-.52.44.49.49 0 0 1-.47-.49l-2.17-95.39a.52.52 0 0 1 .29-.47.51.51 0 0 1 .54.08l13.44 11.59a.47.47 0 0 1 .17.33Zm-11.42 77.35L198 345.17l-12.38-10.68Zm-17.28-28.19L149.52 442a.49.49 0 0 1-.56.29.52.52 0 0 1-.4-.49l-.49-72.37a.51.51 0 0 1 .49-.51.53.53 0 0 1 .39.18l21.32 24.52a.5.5 0 0 1 .12.29.7.7 0 0 1-.04.25m-20.8 45.29 19.75-45.4-20.22-23.26Z"/><path d="M178.23 486.39a.51.51 0 0 1-.58-.2l-29-44.11a.49.49 0 0 1 0-.47l20.82-47.85a.49.49 0 0 1 .54-.29.51.51 0 0 1 .42.45l8.18 91.95a.52.52 0 0 1-.38.52m-28.6-44.63L177.4 484l-7.84-88Z"/><path d="M187.77 428.85 178.56 486a.5.5 0 0 1-1 0l-8.17-92a.51.51 0 0 1 .36-.53.48.48 0 0 1 .58.26l17.39 34.8a.6.6 0 0 1 .06.18.7.7 0 0 1-.01.14m-9.56 53 8.55-53-16.14-32.31Z"/><path d="m187.78 428.8-6.25 99.55a.51.51 0 0 1-.5.47.5.5 0 0 1-.5-.46l-3-42.4v-.12l9.2-57.14a.5.5 0 0 1 .55-.42.52.52 0 0 1 .45.45Zm-6.78 92 5.13-81.8-7.56 46.93Z"/><path d="m178.57 485.92-1.74 76.13a.5.5 0 0 1-.45.55.49.49 0 0 1-.55-.44L160 503.59a.52.52 0 0 1 .13-.49l17.58-17.54a.49.49 0 0 1 .55-.11.53.53 0 0 1 .3.42Zm-2.66 72.64 1.63-71.41-16.49 16.46Z"/><path d="m178.57 485.88 3 42.4v.11l-4.7 33.71a.5.5 0 0 1-1-.08l1.74-76.12a.5.5 0 0 1 .49-.49.52.52 0 0 1 .51.46Zm2 42.42-2.21-31.58-1.36 56.69Zm.5 0"/><path d="m176.83 562.05-1.25 38.57a.5.5 0 0 1-.93.24L161 578a.5.5 0 0 1 .06-.6L176 561.69a.51.51 0 0 1 .56-.12.48.48 0 0 1 .3.42.1.1 0 0 1-.03.06m-2.19 36.83 1.14-35.55-13.7 14.49Z"/></g><g fill="#66def2"><path d="m-119.95 533-9.24-58.42 11.26-57.21 17.68-52.51 23-68.88L-56 265.73l19.55-48.35 10.11-19 8.74-34.53 4.3-63.85-.58-39-9.77-94.12 10-72.5L5.73-158.9l33.9-48.63 22.95-9.57-29.3 31.21-30.1 47.29-.13 38.49-19.65 82.59L.6 86.81l-8.36 75.38-21.15 55-24.9 62.94-30.39 62 5.27 109 15.61 74.58L-79.8 555l-22.2 24.52s-9.43-1.74-9.85-4.21-8.1-42.31-8.1-42.31" opacity=".35" style="isolation:isolate"/><path d="m-39.92 343.19-13.4-9.79 29.6 32 39.63 23.58 54.4-4.84 20.25-1.8 35.02-30.78 14.14-15.63 10.75-11.89 6.23-16.42-40.17 44.88-31.74 21.38-28.51 4.19-43-.31-41.45-23.29zm176.3 413 18.23-71.8-3.47-38.94-3.42-38.45 7.21-38 3.65-12.53s-2.83-18.39-1.78-20-6.9-24-6.9-24l-4.28-34.25-3.19-35.86-2.31-25.9 3.45-30.46 4.9-35.58L161 303.23l-18 46-4.18 39.31L135.3 422l3 38.36 5.21 29.4 8.18 42.67 2.22 24.9-4.91 33.4-5 19.71 5.54 39.67-.67 43.23-21.1 67.66ZM99.49 539.07l-16.62 12.42-22.86 12.84-26.49 14.02-20.32 6.39-25.37 4.9-35.34 2.87-18.84-8.36-22.31-12.07-15.38-14.9-10.22-8.93 12.22 16.32 17.38 14.85 22.51 9.25 16.84 7.99 38.39-3.41 27.63-6.81 19.45-7.08 27.65-16.4L88.8 550.6z" opacity=".4" style="isolation:isolate"/><path d="m-112.08 572.82 18.21 12.1 13.81 4.8 13.2 4.18 16.54 10.1 17.3 6.68 13.63 2.8 23.93 1.89 20.35-4.49L49.2 601 79 583l21.36-15.73s-22.19 21.38-23.16 21.8S45.63 607 45.63 607L19.5 618l-20.94 1.86-23-3.31-19.7-6.95-16.51-8.6-13.57-5.82-19.27-6-15-10.59-3.37-3.34ZM41.74 90.33l26.81 13.51 38.51 8.75 18.76-10.96 20.34-19.96 1.15-7.91-17.25 13.5-26.87 9.28-23.11 1.59zm2.15-40.72c3.12.48 27.28 7.61 27.28 7.61l23.66-2.11 28.56-9L138 44.8l15-1.33-.32-3.54-15.16 1.35L116.09 43l-26.43 7.48-20.81 2.78Zm-8.05-17.2 30.58-.37 21.22-4.24 17.03-9.7 20.7-11.88 23.35 2.43-.4-4.48-28.21-.58-18.79 9.65-19.44 12.69-23.72 3.97zm198.65 109.56 3.35-5.65-22.9-3.51-13.87-9.76-15.06-17.49-7.22-6.71 5.97 10.76 11.81 14.26 12.03 8.47 9.32 5.75zM214.06-35.08l-5.05 22.31 2.07 23.27-4.39 29.57-.57 16.19 3.11-11.32 3.46-16.38L214.79 7l-2.48-16.55 4.68-21.21z" opacity=".4" style="isolation:isolate"/><path d="m140.76-165.09 5.17 58.12 2.39 111.14 4.36 35.76.32 3.54-6.03 26.49-.89 36.48.62 26.88-.44 22.15 3.04 16.27 3.71 19.65 4.86 25.81 4.35 70.18-5.2 41.3.68 7.65-9.08 33.63-2.96-13.83 6.09-50.74 2.58-33.03L144 199.84l-9.63-41.98 5.12-96.44 5.04-28.62-3.77-42.34-1.74-104.07z" opacity=".4" style="isolation:isolate"/><path d="m23.17-445.71 34.5 63.4L80-342.13 106.63-290l18.82 32L144-216.81l15.56 34.25 13.13 32.33 12.66 44.11 13.24 46.59L217-30.76l25.44 34.13L257.2 34.2l-3 37.86-14.35 50.24-8.77 33.92-12.64 75.22-10.64 53.36-9.2 60.68-11.28 83.8-6.25 99.55-4.7 33.72-1.24 38.57 1.28 31.43.67 38.74-9.08-47.94 2.43-36 .5-44.9 6-42 4-83.82 16.46-83.85 8.81-65.06L216.8 213l11.64-72.41 4.85-27.3 13.21-34.54-.17-35.11-17.76-49.7-21.41-30.58-17.92-25.48-8.7-46-18.54-47-15.74-36.23L143.1-208l-11-15.27-3.35-5.73L110-269.51s-22.09-21-23.61-24L58.53-348.2l-19.39-42-17.83-45.27Z" opacity=".36" style="isolation:isolate"/><path d="m90.56 382.34 58.06-12.38 9.08-33.63zm56.75-308.58-24 31.23 15.9-46.67L153 43.47zm10.88 144.61L144 199.84l1.29 65.96 17.02 23.05z" opacity=".4" style="isolation:isolate"/><path d="m144 199.84 5.4-28.11 8.79 46.64z" opacity=".4" style="isolation:isolate"/><path d="m177.08 671.29-8.45-45.72-5.25 120.07-11.93 117.05z" opacity=".25" style="isolation:isolate"/><path d="m166.97 748.75-20 103.88-13.4 144.42z" opacity=".37" style="isolation:isolate"/><path d="m151.45 862.69-29.1 66.42 11.22 67.94z" opacity=".15" style="isolation:isolate"/></g><path fill="none" d="m49.267 410.911 3.277-.29.292 3.276-3.277.292z"/><circle cx="51.08" cy="412.4" r="1.64" fill="#8fddef"/><path fill="none" d="m63.923 432.839 2.948-.262.262 2.948-2.948.262z"/><path fill="#8fddef" d="M65.43 432.69a1.48 1.48 0 1 0 1.57 1.38.2.2 0 0 1 0-.07 1.49 1.49 0 0 0-1.57-1.31"/><path fill="none" d="m62.672 453.659 2.869-.255.255 2.868-2.87.255z"/><circle cx="64.27" cy="454.96" r="1.44" fill="#8fddef"/><path fill="none" d="m42.617 465.788 2.36-.21.21 2.36-2.36.21z"/><path fill="#8fddef" d="M43.83 465.68a1.18 1.18 0 1 0 1.28 1.07 1.17 1.17 0 0 0-1.26-1.07Z"/><path fill="none" d="m66.193 470.494 1.863-.165.165 1.862-1.863.166z"/><path fill="#8fddef" d="M67.16 470.41a.92.92 0 1 0 .17 1.84.92.92 0 0 0 .84-1 .94.94 0 0 0-1.01-.84"/><path fill="none" d="m47.568 498.64 2.5-.224.225 2.5-2.5.225z"/><path fill="#8fddef" d="M48 496.63a1.25 1.25 0 1 0 1.35 1.14 1.26 1.26 0 0 0-1.35-1.14"/><path fill="none" d="m63.958 522.008 1.63-.146.147 1.63-1.63.146z"/><path fill="#8fddef" d="M63.8 520a.81.81 0 1 0 .89.74.82.82 0 0 0-.89-.74"/><path fill="none" d="m83.521 534.001 2.81-.253.253 2.81-2.81.253z"/><circle cx="83.98" cy="533.3" r="1.41" fill="#8fddef"/><path fill="none" d="m62.924 546.75 2.898-.258.258 2.899-2.899.258z"/><circle cx="64.54" cy="548.07" r="1.46" fill="#8fddef"/><path fill="none" d="m38.974 562.858 2.75-.244.244 2.75-2.75.243z"/><path fill="#8fddef" d="M40.39 562.73a1.38 1.38 0 1 0 1.49 1.27 1.38 1.38 0 0 0-1.49-1.27"/><path fill="none" d="m16.318 568.762 2.45-.217.218 2.45-2.45.218z"/><circle cx="17.7" cy="569.88" r="1.23" fill="#8fddef"/><path fill="none" d="m9.037 592.173 2.8-.248.248 2.799-2.799.248z"/><path fill="#8fddef" d="M10.49 592a1.43 1.43 0 0 0-1.28 1.53 1.41 1.41 0 1 0 1.28-1.53"/><path fill="none" d="m26.548 620.95 2.59-.23.23 2.59-2.59.23z"/><circle cx="28.01" cy="622.13" r="1.3" fill="#8fddef"/><path fill="none" d="m5.588 631.948 1.574-.14.14 1.574-1.574.14z"/><path fill="#8fddef" d="M6.42 631.87a.81.81 0 0 0-.72.86.79.79 0 1 0 1.58-.14.8.8 0 0 0-.86-.72"/><path fill="none" d="m1.646 736.354 2.092-.186.186 2.092-2.092.186z"/><circle cx="2.84" cy="737.31" r="1.05" fill="#8fddef"/><path fill="none" d="m2.005 740.518 1.584-.14.14 1.583-1.583.141z"/><circle cx="2.93" cy="741.22" r=".8" fill="#8fddef"/><path fill="none" d="m24.84 748.731 2.38-.212.212 2.381-2.38.212z"/><path fill="#8fddef" d="M26.09 748.62a1.19 1.19 0 1 0 1.29 1.08 1.2 1.2 0 0 0-1.29-1.08"/><path fill="none" d="m32.983 762.548 1.883-.168.167 1.883-1.882.167z"/><path fill="#8fddef" d="M34 762.45a.94.94 0 1 0 1 .85 1 1 0 0 0-1-.85"/><path fill="none" d="m40.084 785.123 1.5-.135.135 1.5-1.5.135z"/><path fill="#8fddef" d="M39.6 782a.74.74 0 0 0-.68.79.75.75 0 1 0 1.5 0 .5.5 0 0 0 0-.11.74.74 0 0 0-.79-.68Z"/><path fill="none" d="m46.89 803.282 3.138-.28.28 3.139-3.138.278z"/><path fill="#8fddef" d="M48.52 803.14a1.57 1.57 0 1 0 1.71 1.43 1.58 1.58 0 0 0-1.71-1.43"/><path fill="none" d="m68.42 819.71 3.26-.293.294 3.26-3.26.293z"/><path fill="#8fddef" d="M68.65 816.45a1.63 1.63 0 1 0 1.77 1.48 1.63 1.63 0 0 0-1.77-1.48"/><path fill="none" d="m78.093 846.35 2.779-.246.247 2.779-2.78.247z"/><path fill="#8fddef" d="M79.55 846.21a1.4 1.4 0 1 0 1.51 1.28 1.4 1.4 0 0 0-1.51-1.28"/><path fill="none" d="m73.534 886.988 1.703-.151.151 1.703-1.703.152z"/><path fill="#8fddef" d="M74.47 886.9a.86.86 0 1 0 .93.78.87.87 0 0 0-.93-.78"/><path fill="none" d="m88.054 700.386 1.733-.154.154 1.733-1.733.154z"/><circle cx="89.05" cy="701.17" r=".87" fill="#8fddef"/><path fill="none" d="m78.03 722.853 2.38-.212.212 2.38-2.381.213z"/><path fill="#8fddef" d="M79.28 722.74a1.2 1.2 0 1 0 0 2.4h.22a1.18 1.18 0 0 0 1.08-1.27 1.2 1.2 0 0 0-1.3-1.13"/><path fill="none" d="m63.156 751.297 2.63-.234.233 2.63-2.63.234z"/><path fill="#8fddef" d="M64.53 751.17a1.33 1.33 0 1 0 1.47 1.21 1.33 1.33 0 0 0-1.47-1.21"/><path fill="none" d="m83.71 770.533 2.25-.2.201 2.25-2.251.2z"/><path fill="#8fddef" d="M84.9 770.42a1.12 1.12 0 1 0 1.25 1 1.13 1.13 0 0 0-1.25-1"/><path fill="none" d="m44.354 779.535 1.564-.139.139 1.564-1.564.139z"/><circle cx="45.27" cy="780.23" r=".79" fill="#8fddef"/><path fill="none" d="m76.955 807.996 1.773-.158.158 1.773-1.773.158z"/><path fill="#8fddef" d="M77.9 807.9a.89.89 0 1 0 1 .81.9.9 0 0 0-1-.81"/><path fill="none" d="m51.705 810.263 1.733-.154.155 1.733-1.734.154z"/><circle cx="52.71" cy="811.04" r=".87" fill="#8fddef"/><path fill="none" d="m53.477 830.75 3.008-.267.268 3.008-3.008.268z"/><path fill="#8fddef" d="M55.05 830.6a1.51 1.51 0 1 0 1.64 1.4 1.51 1.51 0 0 0-1.64-1.4"/><path fill="none" d="m47.372 839.84 1.505-.133.133 1.504-1.504.134z"/><path fill="#8fddef" d="M48.19 839.76a.75.75 0 1 0 .81.68.75.75 0 0 0-.81-.68"/><path fill="none" d="m27.77 848.485 3.078-.276.277 3.077-3.078.277z"/><circle cx="28.21" cy="846.6" r="1.54" fill="#8fddef"/><path fill="none" d="m37.953 868.686 2.081-.188.187 2.082-2.081.187z"/><circle cx="37.78" cy="866.26" r="1.04" fill="#8fddef"/><path fill="none" d="m12.028 820.963 1.922-.17.171 1.922-1.922.17z"/><path fill="#8fddef" d="M13.05 820.86a.94.94 0 0 0 .13 1.87 1 1 0 0 0 .36-2 1.06 1.06 0 0 0-.53 0Z"/><path fill="none" d="m9.34 831.654 3.246-.288.29 3.247-3.248.289z"/><circle cx="11.17" cy="833.12" r="1.63" fill="#8fddef"/><path fill="none" d="m104.724 619.954 2.32-.207.207 2.321-2.32.207z"/><circle cx="106.04" cy="621" r="1.16" fill="#8fddef"/><path fill="none" d="m88.326 592.842 2.51-.223.223 2.51-2.51.223z"/><path fill="#8fddef" d="M89.63 592.71a1.26 1.26 0 1 0 1.37 1.15 1.26 1.26 0 0 0-1.37-1.15"/><path fill="none" d="m114.942 606.63 2.59-.23.23 2.59-2.59.23z"/><path fill="#8fddef" d="M116.29 606.49a1.31 1.31 0 0 0-1.18 1.41 1.29 1.29 0 0 0 1.39 1.18 1.3 1.3 0 0 0-.23-2.59Z"/><path fill="none" d="m99.705 575.52 3.277-.292.291 3.277-3.277.292z"/><path fill="#8fddef" d="M101.39 575.36a1.65 1.65 0 1 0 1.79 1.5 1.65 1.65 0 0 0-1.79-1.5"/><path fill="none" d="m62.848 906.952 3.008-.267.267 3.008-3.008.267z"/><circle cx="64.56" cy="908.31" r="1.51" fill="#8fddef" transform="rotate(-3.17 64.561 908.317)"/><path fill="none" d="m72.138 925.546 3.028-.27.27 3.029-3.029.269z"/><path fill="#8fddef" d="M73.73 925.4a1.53 1.53 0 1 0 1.65 1.4 1.53 1.53 0 0 0-1.65-1.4"/><path fill="none" d="m15.145 674.492 2.201-.196.196 2.201-2.201.196z"/><circle cx="16.39" cy="675.5" r="1.1" fill="#8fddef"/><path fill="none" d="m23.381 670.17 2.032-.18.18 2.031-2.031.18z"/><path fill="#8fddef" d="M24.45 670.08a1 1 0 1 0 1.11.92 1 1 0 0 0-1.11-.92"/><path fill="none" d="m55.21 655.247 2.88-.255.255 2.878-2.879.256z"/><circle cx="56.82" cy="656.54" r="1.44" fill="#8fddef"/><path fill="none" d="m28.55 638.446 2.301-.205.205 2.301-2.301.205z"/><path fill="#8fddef" d="M29.75 638.34a1.15 1.15 0 1 0 1.25 1 1.15 1.15 0 0 0-1.25-1"/><path fill="none" d="m65.062 623.93 2.162-.191.192 2.161-2.162.192z"/><circle cx="66.28" cy="624.91" r="1.08" fill="#8fddef"/><path fill="none" d="m50.469 619.227 3.217-.286.286 3.217-3.217.286z"/><path fill="#8fddef" d="M52.13 619.08a1.62 1.62 0 1 0 1.76 1.47 1.62 1.62 0 0 0-1.76-1.47"/><path fill="none" d="m46.187 590.943 1.753-.156.156 1.753-1.753.156z"/><circle cx="47.2" cy="591.73" r=".88" fill="#8fddef"/><path fill="none" d="m11.223 689.731 1.544-.137.137 1.544-1.544.137z"/><path fill="#8fddef" d="M12.05 689.66a.77.77 0 1 0 .15 1.53.76.76 0 0 0 .69-.83.77.77 0 0 0-.83-.7Z"/><path fill="none" d="m26.296 657.464 1.554-.138.138 1.553-1.554.139z"/><circle cx="27.19" cy="658.16" r=".78" fill="#8fddef"/><path fill="none" d="m32.65 650.47 1.78-.16.16 1.78-1.78.16z"/><circle cx="32.6" cy="648.77" r=".89" fill="#8fddef"/><path fill="none" d="m88.294 689.018 2.102-.187.187 2.102-2.102.187z"/><circle cx="89.5" cy="689.96" r="1.06" fill="#8fddef"/><path fill="none" d="m75.815 668.273 2.41-.214.215 2.41-2.41.215z"/><path fill="#8fddef" d="M77.07 668.15a1.23 1.23 0 0 0-1.1 1.32 1.21 1.21 0 0 0 1.32 1.09 1.2 1.2 0 0 0 1.1-1.29 1.2 1.2 0 0 0-1.31-1.1Z"/><path fill="none" d="m108.454 595.738 2.59-.23.23 2.59-2.59.23z"/><circle cx="109.91" cy="596.91" r="1.3" fill="#8fddef"/><path fill="none" d="m37.946 61.876 3.028-.27.27 3.029-3.028.269z"/><path fill="#8fddef" d="M39.48 61.73a1.52 1.52 0 1 0 1.64 1.39 1.52 1.52 0 0 0-1.64-1.39"/><path fill="none" d="m55.495 82.062 3.108-.276.276 3.108-3.108.276z"/><path fill="#8fddef" d="M57.05 81.92a1.56 1.56 0 1 0 1.69 1.42 1.56 1.56 0 0 0-1.69-1.42"/><path fill="none" d="m64.223 99.023 3.137-.28.28 3.138-3.138.28z"/><circle cx="65.94" cy="100.45" r="1.57" fill="#8fddef"/><path fill="none" d="m41.974 115.42 2.68-.238.238 2.68-2.68.238z"/><path fill="#8fddef" d="M43.32 115.31a1.35 1.35 0 1 0 1.46 1.23 1.35 1.35 0 0 0-1.46-1.23"/><path fill="none" d="m59.755 118.99 2.47-.223.222 2.47-2.47.223z"/><path fill="#8fddef" d="M60.59 118.49a1.23 1.23 0 1 0 1.34 1.12 1.23 1.23 0 0 0-1.34-1.12"/><path fill="none" d="m61.062 151.379 2.82-.251.25 2.819-2.82.25z"/><circle cx="62.61" cy="152.66" r="1.42" fill="#8fddef"/><path fill="none" d="m21.052 164.454 1.684-.15.15 1.684-1.684.15z"/><path fill="#8fddef" d="M21.91 164.38a.85.85 0 1 0 .92.77.84.84 0 0 0-.92-.77"/><path fill="none" d="m25.452 192.362 2.55-.227.226 2.55-2.55.227z"/><path fill="#8fddef" d="M26.75 192.25a1.28 1.28 0 1 0 1.38 1.17 1.27 1.27 0 0 0-1.37-1.16Z"/><path fill="none" d="m60.498 203.995 1.932-.172.172 1.932-1.933.172z"/><path fill="#8fddef" d="M61.49 203.91a1 1 0 1 0 1 1v-.11a1 1 0 0 0-1-.89"/><path fill="none" d="m52.557 232.93 2.839-.251.252 2.838-2.839.253z"/><path fill="#8fddef" d="M54 232.79a1.43 1.43 0 1 0 1.54 1.31 1.43 1.43 0 0 0-1.54-1.31"/><path fill="none" d="m67.498 240.47 2.42-.215.215 2.42-2.42.216z"/><path fill="#8fddef" d="M68.73 240.35a1.22 1.22 0 1 0 1.32 1.11 1.23 1.23 0 0 0-1.32-1.11"/><path fill="none" d="m90.482 106.114 2.082-.185.185 2.082-2.082.185z"/><path fill="#8fddef" d="M91.53 106a1 1 0 0 0-1 1 .7.7 0 0 0 0 .14 1 1 0 1 0 1-1.13Z"/><path fill="none" d="m116.749 136.809 1.594-.142.141 1.594-1.593.142z"/><circle cx="117.63" cy="137.53" r=".8" fill="#8fddef"/><path fill="none" d="m79.3 145.615 2.978-.264.265 2.978-2.978.265z"/><circle cx="80.94" cy="146.96" r="1.5" fill="#8fddef"/><path fill="none" d="m85.12 165.724 2.35-.21.21 2.351-2.352.21z"/><path fill="#8fddef" d="M86.3 165.61a1.18 1.18 0 1 0 1.28 1.07 1.18 1.18 0 0 0-1.28-1.07"/><path fill="none" d="m80.354 168.248 1.813-.161.16 1.802-1.813.162z"/><path fill="#8fddef" d="M81.27 168.17a.9.9 0 1 0 1 .82.88.88 0 0 0-1-.82"/><path fill="none" d="m124.875 189.861 1.514-.134.134 1.514-1.514.135z"/><circle cx="125.71" cy="190.55" r=".76" fill="#8fddef"/><path fill="none" d="m82.47 217.497 2.03-.183.183 2.03-2.03.183z"/><path fill="#8fddef" d="M82.87 216.67a1 1 0 1 0 1.1.92 1 1 0 0 0-1.1-.92"/><path fill="none" d="m80.314 243.255 2.321-.206.206 2.32-2.32.207z"/><circle cx="81.6" cy="244.31" r="1.17" fill="#8fddef"/><path fill="none" d="m63.758 266.894 3.227-.287.287 3.228-3.227.286z"/><path fill="#8fddef" d="M65.4 266.73a1.62 1.62 0 1 0 1.76 1.47 1.62 1.62 0 0 0-1.76-1.47"/><path fill="none" d="m104.702 282.792 1.624-.144.144 1.624-1.623.144z"/><path fill="#8fddef" d="M105.53 282.71a.82.82 0 0 0-.74.89.81.81 0 1 0 .74-.89"/><path fill="none" d="m79.294 281.532 3.068-.272.273 3.068-3.068.272z"/><path fill="#8fddef" d="M80.85 281.39a1.54 1.54 0 1 0 1.67 1.4 1.52 1.52 0 0 0-1.64-1.39Z"/><path fill="none" d="m51.789 291.025 1.564-.139.139 1.564-1.564.139z"/><path fill="#8fddef" d="M52.61 290.94a.78.78 0 1 0 .85.71.78.78 0 0 0-.85-.71"/><path fill="none" d="m51.38 301.402 1.534-.137.136 1.534-1.534.136z"/><path fill="#8fddef" d="M52.17 301.33a.77.77 0 1 0 0 1.54h.1a.77.77 0 0 0 0-1.54Z"/><path fill="none" d="m23.794 316.34 2.959-.263.263 2.958-2.959.263z"/><path fill="#8fddef" d="M25.3 316.2a1.68 1.68 0 1 0 .05 0Z"/><path fill="none" d="m70.158 434.96 2.58-.23.229 2.58-2.58.23z"/><path fill="#8fddef" d="M71.48 434.84a1.3 1.3 0 1 0 1.4 1.19 1.29 1.29 0 0 0-1.4-1.17Z"/><path fill="none" d="m60.208 414.961 2.131-.19.19 2.132-2.132.19z"/><path fill="#8fddef" d="M61.31 414.85a1.07 1.07 0 1 0 1.16 1 1.07 1.07 0 0 0-1.16-1"/><path fill="none" d="m36.317 401.306 3.347-.298.298 3.347-3.347.298z"/><path fill="#8fddef" d="M38 401.15a1.68 1.68 0 1 0 1.82 1.53 1.68 1.68 0 0 0-1.82-1.53"/><path fill="none" d="m36.03 444.992 2.47-.223.223 2.47-2.47.223z"/><path fill="#8fddef" d="M36.54 443.17a1.23 1.23 0 1 0 1.34 1.12 1.23 1.23 0 0 0-1.34-1.12"/><path fill="none" d="m4.442 433.125 2.839-.252.252 2.839-2.839.252z"/><circle cx="6.03" cy="434.42" r="1.42" fill="#8fddef"/><path fill="none" d="m6.06 214.383 2.26-.201.202 2.261-2.261.201z"/><path fill="#8fddef" d="M7.22 214.28a1.13 1.13 0 0 0 .19 2.25 1.12 1.12 0 0 0 1-1.22 1.12 1.12 0 0 0-1.19-1.03"/><path fill="none" d="m15.472 229.1 2.999-.267.266 2.998-2.998.267z"/><path fill="#8fddef" d="M17 229a1.51 1.51 0 1 0 1.63 1.38A1.49 1.49 0 0 0 17 229"/><path fill="none" d="m10.236 267.294 2.68-.238.238 2.68-2.68.238z"/><path fill="#8fddef" d="M11.6 267.16a1.35 1.35 0 1 0 1.46 1.23 1.35 1.35 0 0 0-1.46-1.23"/><path fill="none" d="m1.508 287.249 2.57-.229.228 2.57-2.57.229z"/><path fill="#8fddef" d="M2.81 287.13A1.29 1.29 0 0 0 3 289.7a1.28 1.28 0 0 0 1.17-1.38 1.3 1.3 0 0 0-1.36-1.19"/><path fill="none" d="m122.106 32.134 2.311-.206.205 2.311-2.31.206z"/><circle cx="123.36" cy="33.17" r="1.16" fill="#8fddef"/><path fill="none" d="m136.188 13.14 2.311-.205.206 2.311-2.311.206z"/><path fill="#8fddef" d="M137.35 13a1.12 1.12 0 1 0 .08 0Z"/><path fill="none" d="m149.635 206.7 2.32-.206.207 2.321-2.321.206z"/><path fill="#8fddef" d="M150.81 206.58a1.17 1.17 0 1 0 1.26 1.07 1.17 1.17 0 0 0-1.26-1.07"/><path fill="none" d="m188.397 208.098 1.812-.163.163 1.812-1.812.163z"/><path fill="#8fddef" d="M188.28 207.45a.88.88 0 0 0-.82 1 .9.9 0 1 0 1.8-.16.88.88 0 0 0-.93-.84Z"/><path fill="none" d="m177.808 188.556 2.07-.186.187 2.07-2.07.186z"/><circle cx="177.98" cy="189" r="1.04" fill="#8fddef"/><path fill="none" d="m190.428 173.008 3.197-.285.284 3.198-3.197.284z"/><circle cx="192.18" cy="174.45" r="1.61" fill="#8fddef"/><path fill="none" d="m193.621 165.395 3.078-.274.274 3.078-3.078.274z"/><path fill="#8fddef" d="M195.17 165.24a1.54 1.54 0 0 0-1.4 1.67 1.55 1.55 0 1 0 3.1 0 2 2 0 0 0 0-.22 1.54 1.54 0 0 0-1.67-1.4Z"/><path fill="none" d="m175.146 146.628 2.28-.203.203 2.28-2.28.204z"/><path fill="#8fddef" d="M176.29 146.51a1.15 1.15 0 1 0 1.25 1 1.16 1.16 0 0 0-1.25-1"/><path fill="none" d="m166.377 131.5 3.13-.282.282 3.13-3.13.282z"/><circle cx="167.24" cy="132.63" r="1.56" fill="#8fddef"/><path fill="none" d="m185.95 121.345 2.87-.259.26 2.87-2.87.259z"/><path fill="#8fddef" d="M186.49 121a1.44 1.44 0 1 0 1.56 1.31 1.44 1.44 0 0 0-1.56-1.31"/><path fill="none" d="m157.416 109.803 1.912-.17.17 1.912-1.912.17z"/><path fill="#8fddef" d="M158.38 109.71a.94.94 0 1 0 1 .87 1 1 0 0 0-1-.87"/><path fill="none" d="m170.671 105.864 2.66-.24.24 2.66-2.66.24z"/><path fill="#8fddef" d="M171.19 105.57a1.33 1.33 0 1 0 1.44 1.21 1.31 1.31 0 0 0-1.42-1.21Z"/><path fill="none" d="m174.652 85.59 2.52-.224.224 2.52-2.52.224z"/><path fill="#8fddef" d="M175.92 85.46a1.26 1.26 0 1 0 1.37 1.15 1.26 1.26 0 0 0-1.37-1.15"/><path fill="none" d="m171.27 61.84 2.938-.26.262 2.938-2.939.261z"/><circle cx="172.89" cy="63.16" r="1.48" fill="#8fddef"/><path fill="none" d="m184.079 49.076 3.247-.289.289 3.247-3.247.289z"/><path fill="#8fddef" d="M185.7 48.91a1.63 1.63 0 1 0 1.77 1.48 1.63 1.63 0 0 0-1.77-1.48"/><path fill="none" d="m139.884 468.193 3.188-.283.283 3.187-3.187.284z"/><path fill="#8fddef" d="M141.5 468a1.6 1.6 0 1 0 1.74 1.45 1.6 1.6 0 0 0-1.74-1.45"/><path fill="none" d="m161.888 443.444 2.72-.242.241 2.72-2.72.241z"/><circle cx="163.41" cy="444.68" r="1.36" fill="#8fddef"/><path fill="none" d="m171.709 416.84 2.93-.264.263 2.93-2.93.264z"/><circle cx="172.06" cy="416.76" r="1.47" fill="#8fddef"/><path fill="none" d="m170.345 404.154 2.12-.191.19 2.12-2.12.19z"/><path fill="#8fddef" d="M170.18 402.7a1.06 1.06 0 0 0 .18 2.11 1.06 1.06 0 0 0-.14-2.11Z"/><path fill="none" d="m2.738 466.536 2.71-.241.24 2.71-2.71.24z"/><circle cx="4.25" cy="467.76" r="1.36" fill="#8fddef"/><path fill="none" d="m9.361 493.66 3.188-.283.283 3.187-3.187.284z"/><path fill="#8fddef" d="M11 493.5a1.6 1.6 0 1 0 1.73 1.5 1.6 1.6 0 0 0-1.73-1.5"/><path fill="none" d="m18.855 524.719 2.978-.265.265 2.978-2.978.265z"/><path fill="#8fddef" d="M20.38 524.58A1.5 1.5 0 1 0 22 526a1.5 1.5 0 0 0-1.62-1.42"/><path fill="none" d="m115.407 237.858 2.48-.22.221 2.48-2.48.22z"/><circle cx="116.78" cy="238.97" r="1.25" fill="#8fddef"/><path fill="none" d="m112.725 265.233 1.66-.15.15 1.66-1.66.15z"/><circle cx="112.82" cy="265.1" r=".83" fill="#8fddef"/><path fill="none" d="m85.615 287.065 1.862-.165.166 1.862-1.863.166z"/><circle cx="86.65" cy="287.91" r=".93" fill="#8fddef"/><path fill="none" d="m66.009 284.432 1.98-.178.178 1.98-1.98.178z"/><circle cx="66.44" cy="284.3" r=".99" fill="#8fddef"/><path fill="none" d="m77.8 304.434 2.81-.253.253 2.81-2.81.253z"/><circle cx="78.61" cy="304.61" r="1.4" fill="#8fddef"/><path fill="none" d="m87.46 334.433 2.72-.245.246 2.72-2.72.245z"/><path fill="#8fddef" d="M88 333.11a1.36 1.36 0 0 0 .24 2.71 1.34 1.34 0 0 0 1.23-1.44 1.36 1.36 0 0 0-1.47-1.27"/><path fill="none" d="m47.324 353.913 1.793-.16.16 1.794-1.793.159z"/><circle cx="48.33" cy="354.72" r=".9" fill="#8fddef"/><path fill="none" d="m57.276 362.197 2.331-.207.207 2.33-2.33.208z"/><path fill="#8fddef" d="M58.48 362.08a1.17 1.17 0 1 0 1.27 1.06 1.17 1.17 0 0 0-1.27-1.06"/><path fill="none" d="m62.237 373.841 2.67-.237.237 2.67-2.67.237z"/><path fill="#8fddef" d="M63.6 373.72a1.34 1.34 0 1 0 .24 2.67 1.33 1.33 0 0 0 1.21-1.39 1.34 1.34 0 0 0-1.45-1.28"/><path fill="none" d="m142.608 291.428 1.56-.14.14 1.56-1.56.14z"/><circle cx="142.5" cy="291.18" r=".78" fill="#8fddef"/><path fill="none" d="m129.305 314.996 2.012-.179.179 2.012-2.012.18z"/><circle cx="130.42" cy="315.9" r="1.01" fill="#8fddef"/><path fill="none" d="m69.605 20.18 2.032-.18.18 2.032-2.031.18z"/><circle cx="70.71" cy="21.1" r="1.02" fill="#8fddef"/><path fill="none" d="m234.49 33.136 2.969-.264.264 2.968-2.969.264z"/><circle cx="236.13" cy="34.47" r="1.49" fill="#8fddef"/><path fill="none" d="m235.917 21.861 3.16-.284.285 3.16-3.16.284z"/><path fill="#8fddef" d="M236.54 22a1.58 1.58 0 1 0 1.71 1.44 1.57 1.57 0 0 0-1.7-1.43Z"/><path fill="none" d="m218.144 2.543 3.03-.273.273 3.03-3.03.273z"/><circle cx="218.92" cy="4.21" r="1.52" fill="#8fddef"/><path fill="none" d="m153.67-.675 2.38-.214.214 2.38-2.38.214z"/><circle cx="154.36" cy=".62" r="1.19" fill="#8fddef"/><path fill="none" d="m203.551 5.66 3.06-.275.276 3.06-3.06.276z"/><path fill="#8fddef" d="M204.27 5.79a1.53 1.53 0 1 0 1.66 1.39 1.53 1.53 0 0 0-1.66-1.39"/><path fill="none" d="m245.947 82.273 3.276-.295.295 3.277-3.277.294z"/><path fill="#8fddef" d="M246.51 82.14a1.64 1.64 0 1 0 1.78 1.49 1.65 1.65 0 0 0-1.78-1.49"/><path fill="none" d="m215.566 163.635 2.82-.254.254 2.82-2.82.254z"/><path fill="#8fddef" d="M215.92 163.18a1.41 1.41 0 1 0 1.52 1.29 1.42 1.42 0 0 0-1.52-1.29"/><path fill="none" d="m191.697 308.288 1.912-.17.17 1.912-1.912.17z"/><path fill="#8fddef" d="M192.68 308.19a1 1 0 1 0 1 1 .5.5 0 0 0 0-.12 1 1 0 0 0-1-.88"/><path fill="none" d="m159.807 352.762 2.04-.184.184 2.05-2.04.184z"/><path fill="#8fddef" d="M159.71 351.51a1 1 0 1 0 1.09.91 1 1 0 0 0-1.09-.91"/><path fill="none" d="m73.727 428.01 2.869-.255.255 2.869-2.869.255z"/><path fill="#8fddef" d="M75.19 427.88a1.44 1.44 0 1 0 1.56 1.31 1.44 1.44 0 0 0-1.56-1.31"/><path fill="none" d="m132.883 484.833 2-.18.18 2-2 .18z"/><path fill="#8fddef" d="M132.69 483a1 1 0 1 0 1.08.91 1 1 0 0 0-1.08-.91"/><path fill="none" d="m118.78 462.522 2.34-.21.21 2.34-2.34.21z"/><path fill="#8fddef" d="M118.84 460.77a1.17 1.17 0 1 0 .16 2.33 1.17 1.17 0 0 0-.21-2.33Z"/><path fill="none" d="m144.017 481.8 1.6-.144.144 1.6-1.6.144z"/><path fill="#8fddef" d="M142.85 478.18a.79.79 0 0 0 .14 1.58.81.81 0 0 0 .72-.86.79.79 0 0 0-.85-.72Z"/><path fill="none" d="m112.98 531.5 2.9-.261.262 2.9-2.9.26z"/><path fill="#8fddef" d="M113.25 529.44a1.45 1.45 0 1 0 1.58 1.31 1.45 1.45 0 0 0-1.58-1.31"/><path fill="none" d="m84.577 518.257 2.42-.216.216 2.42-2.42.216z"/><circle cx="85.94" cy="519.34" r="1.21" fill="#8fddef"/><path fill="none" d="m130.22 483.564 1.583-.14.141 1.583-1.584.14z"/><path fill="#8fddef" d="M131.05 483.47a.79.79 0 0 0 .15 1.57.79.79 0 0 0-.14-1.57Z"/><path fill="none" d="m29.076 334.76 2.828-.251.252 2.828-2.829.252z"/><path fill="#8fddef" d="M30.52 334.63a1.42 1.42 0 1 0 1.54 1.29 1.41 1.41 0 0 0-1.53-1.28Z"/><path fill="none" d="m28.088 313.96 2.73-.242.242 2.729-2.73.243z"/><path fill="#8fddef" d="M29.48 313.84a1.37 1.37 0 1 0 .31 2.72 1.37 1.37 0 0 0-.28-2.72Z"/><path fill="none" d="m8.59 367.117 3-.27.27 3-3 .27z"/><circle cx="9.68" cy="367.06" r="1.5" fill="#8fddef"/><path fill="none" d="m80.648 24.811 2.809-.25.25 2.81-2.81.25z"/><path fill="#8fddef" d="M82.05 24.67A1.41 1.41 0 1 0 83.58 26a1.41 1.41 0 0 0-1.53-1.33"/><path fill="none" d="m75.476 9.988 2.67-.237.237 2.67-2.67.237z"/><path fill="#8fddef" d="M76.82 9.86a1.35 1.35 0 0 0-1.22 1.46 1.34 1.34 0 1 0 1.22-1.46"/><path fill="none" d="m124.598 246.501 2.231-.198.199 2.231-2.232.198z"/><circle cx="125.83" cy="247.5" r="1.12" fill="#8fddef"/><path fill="none" d="m104.002 228.419 2.06-.186.186 2.06-2.06.185z"/><circle cx="104.4" cy="228.6" r="1.03" fill="#8fddef"/><path fill="none" d="m106.855 214.984 2.63-.234.233 2.63-2.63.234z"/><path fill="#8fddef" d="M108.18 214.85a1.33 1.33 0 1 0 1.45 1.21 1.33 1.33 0 0 0-1.45-1.21"/><path fill="none" d="m127.636 189.183 3.297-.293.293 3.297-3.297.293z"/><path fill="#8fddef" d="M129.3 189a1.65 1.65 0 1 0 1.79 1.5 1.65 1.65 0 0 0-1.79-1.5"/><path fill="none" d="m122.199 188.843 1.62-.146.146 1.62-1.62.146z"/><path fill="#8fddef" d="M122.27 188.21a.81.81 0 1 0 .88.73.81.81 0 0 0-.88-.73"/><path fill="none" d="m87.673 192.45 3.317-.295.294 3.316-3.317.295z"/><path fill="#8fddef" d="M89.35 192.31a1.67 1.67 0 1 0 1.81 1.52 1.66 1.66 0 0 0-1.81-1.52"/><path fill="none" d="m145.929 282.782 1.793-.16.159 1.793-1.793.16z"/><path fill="#8fddef" d="M146.84 282.68a.89.89 0 0 0-.81 1 .9.9 0 1 0 .81-1"/><path fill="none" d="m163.614 282.112 1.84-.165.166 1.84-1.84.165z"/><path fill="#8fddef" d="M163.5 281.15a.92.92 0 1 0 1 .83.91.91 0 0 0-1-.83"/><path fill="none" d="m172.562 270.388 2.83-.251.25 2.829-2.828.251z"/><path fill="#8fddef" d="M174 270.24a1.42 1.42 0 1 0 1.54 1.29 1.42 1.42 0 0 0-1.54-1.29"/><path fill="none" d="m166.833 249.386 3.336-.296.297 3.337-3.337.296z"/><circle cx="168.67" cy="250.89" r="1.68" fill="#8fddef"/><path fill="none" d="m82.63 494.054 2.59-.23.23 2.59-2.589.23z"/><path fill="#8fddef" d="M84 493.93a1.3 1.3 0 1 0 1.41 1.18 1.29 1.29 0 0 0-1.41-1.18"/><path fill="none" d="m77.839 472.381 2.998-.266.267 2.998-2.998.266z"/><circle cx="79.51" cy="473.73" r="1.5" fill="#8fddef"/><path fill="none" d="m154.273 707.541 2.6-.23.231 2.6-2.6.23z"/><circle cx="155.74" cy="708.71" r="1.31" fill="#8fddef"/><path fill="none" d="m156.217 805.676 1.973-.175.175 1.972-1.972.175z"/><circle cx="157.36" cy="806.55" r=".99" fill="#8fddef"/><path fill="none" d="m95.567 923.453 2.66-.24.239 2.66-2.66.24z"/><path fill="#8fddef" d="M95.25 919.84a1.32 1.32 0 0 0-1.2 1.43 1.33 1.33 0 1 0 1.21-1.44Zm-16.42 6.64a1 1 0 1 0 1.09.91 1 1 0 0 0-1.09-.91"/><path fill="none" d="m94.092 781.64 2.33-.207.208 2.33-2.33.208z"/><path fill="#8fddef" d="M95.32 781.52a1.16 1.16 0 1 0 1.27 1.06 1.16 1.16 0 0 0-1.27-1.06"/><path fill="none" d="m146.983 769.572 2.88-.256.255 2.878-2.879.256z"/><path fill="#8fddef" d="M148.49 769.44a1.45 1.45 0 1 0 .23 0Z"/><path fill="none" d="m113.14 749.297 3.217-.286.286 3.217-3.217.286z"/><circle cx="114.94" cy="750.76" r="1.62" fill="#8fddef"/><path fill="none" d="m132.937 683.466 2.32-.207.207 2.321-2.321.206z"/><path fill="#8fddef" d="M134.16 683.35a1.16 1.16 0 1 0 1.27 1.06 1.18 1.18 0 0 0-1.27-1.06"/><path fill="none" d="m117.476 643.94 2.5-.222.223 2.5-2.5.222z"/><path fill="#8fddef" d="M118.77 643.82a1.25 1.25 0 1 0 1.36 1.14 1.25 1.25 0 0 0-1.36-1.14"/><path fill="none" d="m112.663 643.697 1.9-.171.17 1.9-1.9.17z"/><path fill="#8fddef" d="M112.29 641.23a1 1 0 1 0 1 .89 1 1 0 0 0-1-.89"/><path fill="none" d="m102.093 666.227 1.923-.171.17 1.922-1.922.171z"/><circle cx="103.19" cy="667.1" r=".97" fill="#8fddef"/><path fill="none" d="m73.79 679.242 2.94-.265.264 2.94-2.94.264z"/><path fill="#8fddef" d="M74.05 676.55a1.47 1.47 0 1 0 1.6 1.33 1.48 1.48 0 0 0-1.6-1.33"/><path fill="none" d="m129.41 640.986 2.26-.201.201 2.26-2.26.202z"/><path fill="#8fddef" d="M130.58 640.87a1.13 1.13 0 0 0-1 1.23 1.14 1.14 0 1 0 1-1.26Z"/><path fill="none" d="m159.745 623.821 2.44-.22.22 2.44-2.44.22z"/><path fill="#8fddef" d="M159.48 621.49a1.22 1.22 0 1 0 1.32 1.1 1.21 1.21 0 0 0-1.32-1.1"/><path fill="none" d="m161.55 524.184 3.17-.285.285 3.17-3.17.285z"/><path fill="#8fddef" d="M161.77 522.2a1.59 1.59 0 1 0 1.72 1.45 1.59 1.59 0 0 0-1.72-1.45"/><path fill="none" d="m173.427 507.443 1.56-.14.14 1.56-1.56.14z"/><circle cx="172.9" cy="506.39" r=".78" fill="#8fddef"/><path fill="none" d="m80.734 394.008 1.653-.147.147 1.654-1.653.147z"/><circle cx="81.66" cy="394.75" r=".83" fill="#8fddef"/><path fill="none" d="m82.892 420.994 2.56-.23.23 2.56-2.56.23z"/><circle cx="83.38" cy="420.63" r="1.28" fill="#8fddef"/><path fill="none" d="m91.59 423.737 2.44-.217.217 2.44-2.44.218z"/><path fill="#8fddef" d="M92.85 423.62a1.22 1.22 0 1 0 1.33 1.11 1.22 1.22 0 0 0-1.33-1.11"/><path fill="none" d="m172.283 661.1 2.042-.18.182 2.041-2.042.182z"/><path fill="#8fddef" d="M173.36 661a1 1 0 1 0 1.11.93 1 1 0 0 0-1.11-.93"/><path fill="none" d="m92.48 845.143 1.72-.155.155 1.72-1.72.155z"/><circle cx="91.9" cy="842.74" r=".86" fill="#8fddef"/><path fill="none" d="m99.596 886.58 1.56-.14.14 1.56-1.56.14z"/><path fill="#8fddef" d="M98.77 883.16a.78.78 0 0 0-.76.8.77.77 0 0 0 .79.76h.11a.78.78 0 0 0 .76-.8.77.77 0 0 0-.79-.76Z"/><path fill="none" d="m-2.311 910.828 2.46-.218.219 2.46-2.46.219z"/><path fill="#8fddef" d="M-1 910.71A1.22 1.22 0 0 0-2.13 912a1.22 1.22 0 0 0 1.33 1.12 1.22 1.22 0 0 0 1.12-1.33A1.22 1.22 0 0 0-1 910.71"/><path fill="none" d="m24.29 923.89 2.829-.251.251 2.828-2.829.252z"/><path fill="#8fddef" d="M25.78 923.75a1.41 1.41 0 0 0-1.28 1.54 1.42 1.42 0 1 0 2.82-.26 1.42 1.42 0 0 0-1.54-1.28"/><path fill="none" d="m142.612 114.16 2.66-.24.24 2.66-2.66.24z"/><path fill="#8fddef" d="M143.22 113.79a1.32 1.32 0 0 0-1.2 1.43 1.33 1.33 0 1 0 2.66 0 2 2 0 0 0 0-.22 1.32 1.32 0 0 0-1.43-1.2Z"/><path fill="none" d="m98.522 52.52 2.53-.224.225 2.53-2.53.225z"/><path fill="#8fddef" d="M99.79 52.39a1.26 1.26 0 0 0-1.15 1.36 1.27 1.27 0 1 0 1.15-1.38Z"/><path fill="none" d="m123.776 95.726 2.75-.248.248 2.75-2.75.248z"/><path fill="#8fddef" d="M124.53 95.39a1.38 1.38 0 1 0 1.47 1.28 1.38 1.38 0 0 0-1.47-1.28"/><path fill="none" d="m92.103 90.403 3.34-.301.3 3.34-3.34.3z"/><circle cx="93.43" cy="91.69" r="1.67" fill="#8fddef"/><path fill="none" d="m95.498 187.089 2.978-.265.265 2.978-2.978.265z"/><circle cx="97.13" cy="188.43" r="1.49" fill="#8fddef"/><path fill="none" d="m191.789 205.055 2.16-.194.194 2.16-2.16.194z"/><circle cx="191.93" cy="205.49" r="1.08" fill="#8fddef"/><path fill="none" d="m117.87 430.96 2.23-.2.201 2.23-2.23.2z"/><path fill="#8fddef" d="M117.92 429.34a1.11 1.11 0 1 0 1.22 1 1.11 1.11 0 0 0-1.2-1Z"/><path fill="none" d="m118.035 361.91 1.763-.156.157 1.763-1.763.157z"/><path fill="#8fddef" d="M119 361.81a.88.88 0 1 0 .16 1.76.88.88 0 0 0-.16-1.76"/><path fill="none" d="m136.695 367.953 2.29-.204.204 2.291-2.29.204z"/><circle cx="137.97" cy="369" r="1.15" fill="#8fddef"/><path fill="none" d="m133.248 379.064 2.6-.234.234 2.6-2.6.234z"/><path fill="#8fddef" d="M133.51 377.65a1.3 1.3 0 1 0 1.41 1.18 1.29 1.29 0 0 0-1.41-1.18"/><path fill="none" d="m147.41 388.333 3.17-.285.284 3.17-3.17.285z"/><path fill="#8fddef" d="M147.89 386.87a1.59 1.59 0 1 0 1.72 1.45 1.58 1.58 0 0 0-1.71-1.44Z"/><path fill="none" d="m82.541 350.22 1.58-.142.142 1.58-1.58.142z"/><path fill="#8fddef" d="M82.54 348.89a.79.79 0 0 0-.72.85.79.79 0 1 0 1.57-.13.77.77 0 0 0-.83-.72Z"/><path fill="none" d="m.307 347.561 1.813-.16.16 1.812-1.812.161z"/><circle cx="1.32" cy="348.39" r=".91" fill="#8fddef"/><g style="mix-blend-mode:color-dodge"><ellipse cx="170.02" cy="674.04" fill="url(#a)" rx="146.66" ry="25.55" transform="rotate(-87.7 169.06 673.441)"/><ellipse cx="140.38" cy="862.32" fill="url(#e)" rx="146.66" ry="25.55" transform="rotate(-83.87 140.383 862.323)"/><ellipse cx="-38.87" cy="667.13" fill="url(#f)" rx="81.49" ry="200.75" transform="rotate(-2.21 -38.802 667.263)"/><ellipse cx="-29.88" cy="219.16" fill="url(#g)" rx="146.66" ry="42.73" transform="rotate(-72.62 -29.88 219.161)"/><ellipse cx="143.54" cy="124.06" fill="url(#h)" rx="17.6" ry="146.66" transform="rotate(-2.21 143.604 124.132)"/><ellipse cx="138.42" cy="410.98" fill="url(#i)" rx="157.08" ry="14.27" transform="rotate(-83.87 138.42 410.978)"/><ellipse cx="151.28" cy="194.08" fill="url(#j)" opacity=".5" rx="24.08" ry="146.66" style="isolation:isolate" transform="rotate(-5.08 151.307 194.071)"/><ellipse cx="144.7" cy="-14.91" fill="url(#k)" opacity=".5" rx="16.63" ry="146.66" style="isolation:isolate" transform="rotate(-5.08 144.654 -14.928)"/><ellipse cx="141.65" cy="-70.95" fill="url(#l)" opacity=".78" rx="24.08" ry="146.66" style="isolation:isolate" transform="rotate(-5.08 141.606 -70.966)"/><ellipse cx="104.95" cy="369" fill="url(#m)" rx="78.28" ry="13.92" transform="rotate(-32.46 104.953 369.002)"/><ellipse cx="210.94" cy="-33.82" fill="url(#n)" rx="13.92" ry="78.28" transform="rotate(-35.08 210.941 -33.812)"/><ellipse cx="96.41" cy="106.16" fill="url(#o)" rx="78.28" ry="13.92" transform="rotate(-2.21 96.495 106.108)"/><ellipse cx="-4.73" cy="-120.88" fill="url(#p)" rx="146.66" ry="35.6" transform="rotate(-72.62 -4.735 -120.88)"/><ellipse cx="-10.28" cy="-57" fill="url(#q)" rx="146.66" ry="35.6" transform="rotate(-85.76 -10.283 -56.999)"/><ellipse cx="-13.28" cy="37.22" fill="url(#r)" rx="28.33" ry="146.66" transform="rotate(-7.96 -13.276 37.204)"/><ellipse cx="222.72" cy="175.33" fill="url(#s)" rx="146.69" ry="28.34" transform="rotate(-78.47 222.702 175.326)"/><ellipse cx="252.6" cy="30.89" fill="url(#t)" rx="26.74" ry="62.71" transform="rotate(-13.2 252.61 30.892)"/><ellipse cx="185.87" cy="434.87" fill="url(#u)" rx="146.66" ry="14.89" transform="rotate(-83.87 185.87 434.87)"/></g><g style="mix-blend-mode:color-dodge"><ellipse cx="-16.82" cy="157.38" fill="url(#b)" rx="194.99" ry="34.94" transform="rotate(-81.36 -16.82 157.382)"/><ellipse cx="-69.06" cy="300.35" fill="url(#v)" opacity=".8" rx="167.67" ry="39.55" style="isolation:isolate" transform="rotate(-68.36 -69.055 300.35)"/><ellipse cx="-15.64" cy="-9.69" fill="url(#w)" rx="35.36" ry="110.73" transform="rotate(-5.08 -15.605 -9.727)"/><path fill="url(#c)" d="M26.33-165.17c-32.54-3.71-71.72 105-87.5 242.78s-2.21 252.52 30.33 256.24 71.72-105 87.5-242.77 2.21-252.53-30.33-256.25"/><path fill="url(#x)" d="M15.78 49.47c-54.92-16.38-131.61 78.07-171.29 211s-27.33 253.93 27.6 270.32S3.7 452.69 43.38 319.8 70.71 65.86 15.78 49.47"/></g></g></svg>